<?xml version="1.0" standalone="no"?>
<!DOCTYPE svg PUBLIC "-//W3C//DTD SVG 1.1//EN" "http://www.w3.org/Graphics/SVG/1.1/DTD/svg11.dtd" >
<svg>
<metadata>
Created by FontForge 20110222 at Mon Mar  7 11:06:38 2011
 By www-data
(c)2002 Nght - NghtMvs101@aol.com
</metadata>
<defs>
<font id="101BrickLayer" horiz-adv-x="472" >
  <font-face 
    font-family="101! Brick Layer"
    font-weight="400"
    font-stretch="normal"
    units-per-em="1000"
    panose-1="2 0 5 3 0 0 0 0 0 0"
    ascent="800"
    descent="-200"
    x-height="800"
    cap-height="799"
    bbox="-0.193815 -198 1251 802"
    underline-thickness="20"
    underline-position="-143"
    unicode-range="U+0020-007A"
  />
    <missing-glyph />
    <glyph glyph-name="space" unicode=" " horiz-adv-x="500" 
 />
    <glyph glyph-name="exclam" unicode="!" horiz-adv-x="395" 
d="M347 802l-98 -673l-7 -4h-136l-106 668c1 3 1 3 2 9h345zM326 -52c0 -63 -45 -146 -142 -146c-88 0 -148 60 -148 147c0 75 64 143 139 143c82 0 151 -67 151 -144zM275 632h-47v118l8 6c-7 3 -9 4 -11 4h-31v-128h-124v-12c0 -3 2 -8 6 -22h26v-123h-7v-33
c19 0 19 0 70 3c8 0 18 -2 29 -7v-114l-8 -5h-67l15 -87v57h94c3 22 5 33 6 33v-2c-3 15 -6 44 -6 45v73c4 4 12 6 23 6v32h-117v122h141v34zM275 -25c-10 33 -11 33 -33 33c-4 0 -8 6 -13 17c-5 15 -12 18 -36 18v-33h-72c-19 0 -30 -11 -34 -32c16 -5 24 -16 24 -35
c-2 -18 -3 -33 -3 -41c0 -21 10 -35 30 -41v114h137z" />
    <glyph glyph-name="quotedbl" unicode="&#x22;" 
 />
    <glyph glyph-name="numbersign" unicode="#" 
 />
    <glyph glyph-name="dollar" unicode="$" 
 />
    <glyph glyph-name="percent" unicode="%" 
 />
    <glyph glyph-name="ampersand" unicode="&#x26;" 
 />
    <glyph glyph-name="quotesingle" unicode="'" 
 />
    <glyph glyph-name="parenleft" unicode="(" 
 />
    <glyph glyph-name="parenright" unicode=")" 
 />
    <glyph glyph-name="asterisk" unicode="*" 
 />
    <glyph glyph-name="plus" unicode="+" 
 />
    <glyph glyph-name="comma" unicode="," 
 />
    <glyph glyph-name="hyphen" unicode="-" 
 />
    <glyph glyph-name="period" unicode="." 
 />
    <glyph glyph-name="slash" unicode="/" 
 />
    <glyph glyph-name="zero" unicode="0" horiz-adv-x="723" 
d="M706 301c0 -196 -58 -499 -341 -499c-226 0 -365 184 -365 482c0 321 138 518 367 518c207 0 339 -196 339 -501zM570 654c-9 22 -28 41 -57 57l1 -5c0 -5 -2 -13 -6 -22h-232c-8 10 -9 42 -9 60h-10c-10 0 -15 -6 -16 -17c1 8 1 11 2 11v-38c0 -11 -8 -16 -22 -16h-37
c-25 0 -39 -10 -43 -30h226c12 -33 14 -36 33 -44v24c0 7 2 14 6 20h164zM658 210v178c-7 0 -44 -1 -66 -2c-18 0 -36 2 -50 7v112h97l-6 31h-184v-17c0 -8 16 -12 49 -12c2 0 6 -1 14 -3v-118h-37v-27h175v-109l-5 -7h-167v-36h37v-115h-55c0 -2 -2 -11 -5 -26h178l6 28
h-94v116h113zM253 536c-83 -3 -118 -2 -125 5v93c-19 -31 -29 -64 -32 -98c-1 0 -5 0 -10 2c-6 0 -6 0 -16 -32h171zM433 257c0 225 -22 323 -82 323c-47 7 -82 -92 -82 -233c0 -218 20 -314 84 -314c53 0 80 75 80 224zM227 241h-93v119h93v26h-181v-26h55v-111
c-5 -5 -13 -7 -24 -7h-31v-32h181v31zM570 -56c-18 0 -80 -1 -95 -2c-22 0 -49 2 -71 7v47c-7 -1 -17 -3 -29 -7v-45h-236c2 -19 15 -29 39 -29h36c15 0 23 -2 25 -5c1 -6 3 -27 5 -48c14 -4 23 -6 28 -6v58h239c3 -6 6 -14 7 -24c14 5 23 15 52 54zM256 64
c-3 7 -8 18 -15 32l-4 -7h-172c5 -18 5 -19 35 -32c1 -48 12 -83 31 -105v112h125z" />
    <glyph glyph-name="one" unicode="1" horiz-adv-x="470" 
d="M419 -198h-413c-5 77 -6 98 -6 193h79c4 10 4 14 5 17l-1 562c-7 3 -21 4 -44 4c-2 0 -12 2 -29 6v212l329 5l5 -803h75v-196zM375 -80c-72 2 -77 2 -77 71c0 18 1 28 6 86h-136l-5 6v111l7 8h132v189h-139v128h138v189h-141v53h-31c-1 -12 -3 -30 -6 -54h-71v-36h222
v-117l-5 -7h-144v-188h140c8 0 12 -13 12 -40c0 -45 -3 -73 -8 -85h-143v-191h150v-123h-230v-36h86v-42h30c1 11 4 26 8 45h205v33z" />
    <glyph glyph-name="two" unicode="2" horiz-adv-x="727" 
d="M680 547c0 -91 -30 -168 -89 -229c-263 -200 -290 -221 -318 -311c7 -4 10 -5 12 -6h153c13 37 20 78 22 123l9 3h195l-13 -319l-647 -6l-4 13c0 225 64 337 275 534c64 60 96 112 96 155c0 40 -27 70 -61 70c-26 0 -43 -18 -52 -55c0 -1 -2 -30 -8 -83
c-26 -3 -40 -2 -43 -3h-176v351h201l20 -35c43 35 98 53 165 53c143 0 263 -100 263 -255zM606 658c-7 26 -19 27 -70 33c-1 37 -13 56 -34 56c0 -13 -2 -32 -7 -57h-243c-5 -7 -13 -16 -24 -28c-5 5 -10 21 -15 49l-4 -21h-135v-34c23 0 25 0 29 -5v-113
c-5 -2 -15 -4 -29 -6v-29h134l6 29l-83 1v120h223v-23c0 -18 11 -31 32 -38l6 66h214zM623 39v32h-88c-4 2 -5 6 -5 17h-28c-2 -11 -5 -28 -8 -49h129zM633 503v33h-214v-32l30 1c13 0 30 -3 51 -8v-111l-5 -7h-138l-27 -33l21 -2v-119c-9 -2 -19 -4 -31 -4
c-8 0 -16 1 -63 5c-43 0 -68 -12 -77 -36h28v-119c-21 0 -22 0 -85 6c-15 0 -32 -13 -49 -38l18 1c7 0 10 -6 10 -18c0 -25 -2 -61 -7 -107h-45v-34h159v-35h33v11c0 14 2 20 7 24l185 2c37 0 51 -1 66 -5v-30h30c0 20 2 29 7 36h77v29h-223c-6 12 -7 18 -7 46h-30
c0 -12 -1 -22 -9 -45h-216v122h105c6 10 9 16 9 19v-2l-1 114c0 18 12 27 37 27c3 0 12 0 47 -4c39 0 67 12 83 35c-11 0 -16 1 -23 6l-4 82c0 28 13 36 55 36h124l24 31h-49v123h97z" />
    <glyph glyph-name="three" unicode="3" horiz-adv-x="703" 
d="M655 99c0 -170 -116 -297 -272 -297c-59 0 -117 14 -173 41l-9 -18h-197v329h212c0 -114 16 -151 72 -151c47 0 79 46 79 111c0 74 -33 103 -182 106v190c123 -6 166 23 166 111c0 43 -31 74 -74 74c-42 -2 -70 -54 -70 -136h-200v333h200l11 -31c47 27 101 41 161 41
c157 0 259 -94 259 -236c0 -99 -41 -188 -110 -237c85 -61 127 -138 127 -230zM543 702c-19 17 -42 31 -67 40l-5 -8h-211c-6 -2 -22 -12 -51 -29c55 0 96 -2 123 -6c0 -96 0 -99 28 -99c1 34 4 68 7 102h176zM192 579h-57c-29 1 -46 3 -51 8v93c0 7 2 15 7 25h92v29h-129
c0 -71 -2 -132 -5 -182h130c2 7 7 15 13 27zM611 80v39h-108v114c18 7 36 8 62 8c-23 27 -56 40 -99 40c-36 -3 -100 -6 -102 -6v114l5 8h168c9 10 16 19 21 28h-50v126h86v28h-219c5 -23 16 -34 34 -34c26 4 44 6 45 6c9 0 17 -3 22 -8v-95c0 -7 -2 -14 -6 -21h-100
c-9 -7 -22 -18 -39 -33v-117h-105c0 -9 1 -15 2 -18c30 0 216 -19 246 -24v-114c-55 0 -56 0 -65 -4c2 -4 4 -8 4 -13s-2 -11 -4 -17h196zM584 -34h-224c1 2 2 5 2 10c0 4 -1 8 -3 12l-34 -22h-241v96c0 6 2 15 7 27h84l-2 20l-112 4c-13 0 -18 -5 -18 -18c5 -5 7 -27 7 -66
c-7 -49 -7 -65 -7 -91c61 2 64 2 78 2c32 0 51 -2 71 -9c-2 -3 -3 -6 -3 -9c0 -9 11 -19 34 -31l-1 16c0 16 3 31 17 31c196 0 198 0 235 -9v-69c17 2 26 12 27 30c3 25 6 39 10 44c60 0 60 0 73 32z" />
    <glyph glyph-name="four" unicode="4" horiz-adv-x="784" 
d="M741 58h-107l-9 -32l9 -27h74v-197h-421c-6 58 -6 85 -6 193h66l16 22l-11 42h-352v185c21 46 112 230 270 552l347 5l6 -531c7 -6 29 -6 119 -6zM583 398v28c-32 1 -35 2 -42 6v121h41v32c-18 0 -88 -1 -105 -2c-34 0 -59 2 -80 8v114l8 9h176v24c-3 3 -6 4 -36 7
c0 15 -5 20 -20 20c-11 0 -19 -7 -22 -21h-210c-4 -6 -8 -17 -14 -30h79l11 -17v-60l14 4l11 -7v-79h107l9 -7v-68c0 -13 -2 -31 -7 -53h-105v-29h185zM344 587h-128c-3 -7 -7 -17 -13 -30h24c0 -38 -2 -81 -5 -127h-60c-23 0 -36 -10 -39 -30h131l13 26c-3 1 -6 3 -9 6v116
c7 5 24 7 52 7c29 0 34 5 34 32zM349 265v227c-38 -72 -74 -148 -108 -227h108zM701 99l-2 17h-154v124h39v34h-181v-34h100c5 -13 7 -22 7 -28v-91l-5 -6h-240l-7 5v100h-32v-105h-186l6 -15h350l8 -19h180l4 18h113zM191 277h-82v91c-9 -19 -23 -46 -27 -54l4 -20
c0 -5 -7 -12 -20 -22c-13 -9 -21 -19 -22 -30c15 2 24 3 27 3c42 -5 63 -7 73 -7c31 0 47 13 47 39zM665 -42h-332c-5 -5 -8 -9 -8 -12v-22c104 0 165 -1 182 -3v-73h31c0 52 0 77 1 77h126v33z" />
    <glyph glyph-name="five" unicode="5" horiz-adv-x="729" 
d="M684 154c0 -211 -110 -352 -278 -352c-68 0 -120 10 -157 30l-17 -23h-220v335h216c4 -83 33 -125 88 -125c52 0 78 39 78 117c0 71 -24 106 -73 106c-24 0 -48 -11 -71 -33h-242l-8 583l598 8l23 -316h-219c-15 84 -18 96 -32 121h-120v-189l4 -5c56 29 114 44 175 44
c159 0 255 -114 255 -301zM554 588c0 1 3 96 6 151h-145v19h-27c-7 0 -10 -5 -10 -19h-245c-4 15 -4 15 -13 15c-2 -1 -10 -1 -25 -2c0 -11 -9 -15 -20 -17h-32v-33h194v-54h31c1 13 3 32 6 57l230 1c2 -1 6 -2 16 -5v-121h-89v-28h142c0 25 -3 32 -19 36zM512 397
c-28 12 -57 18 -88 18c-21 0 -85 -11 -100 -20zM632 236v17c0 12 -5 19 -15 21c1 0 1 0 1 -1h-58c-6 97 -7 110 -36 121c3 -48 3 -53 3 -64c0 -31 -3 -45 -9 -60h-139c7 -8 17 -19 31 -34h222zM209 393v29c-69 1 -70 2 -80 6v114c0 3 2 6 6 8h68v29h-159v-32h49v-124h-49
v-30h165zM272 284v81c-24 0 -31 -1 -35 -30l-1 -67h-188v-17h193c8 0 31 24 31 33zM640 81v33h-202c-2 -8 -4 -20 -7 -36h95v-113l-7 -8h-247v27c-28 12 -29 13 -32 20v-48c-151 0 -159 -1 -192 -6v-24h14c11 0 22 -2 35 -7v-67h34v70h254v-77l32 -1c0 67 0 75 5 82h158
c3 3 10 13 20 30h-39v125h79zM194 80v9c0 4 -3 9 -8 14h-134c-4 -4 -4 -11 -4 -23h146z" />
    <glyph glyph-name="six" unicode="6" horiz-adv-x="736" 
d="M689 170c0 -218 -126 -368 -314 -368c-242 0 -375 176 -375 494c0 291 143 506 341 506c22 0 121 -31 121 -33l73 9h101v-313h-166c185 -114 219 -151 219 -295zM589 682v31h-106l-9 -8l-81 9c4 47 4 47 -30 49v-52c-84 4 -84 4 -93 4c-53 0 -88 -12 -105 -37h62v-113
l-5 -8h-135l-9 -27l14 -2v-118h-41v-29h172v27l-103 5v110l6 8h119c8 18 8 20 8 121l1 20l10 6l225 2c8 0 12 -10 12 -29c0 -7 -1 -38 -3 -92c-1 2 -5 3 -10 3s-12 -1 -20 -4c3 -5 5 -14 8 -25h113v27c-30 0 -50 2 -61 5v94c1 2 2 9 5 23h56zM437 470c0 89 -25 128 -82 128
c-42 0 -69 -55 -82 -166c44 23 99 36 164 38zM417 133c0 48 -19 112 -62 112c-35 0 -65 -48 -65 -103c0 -73 21 -110 64 -110c37 0 63 40 63 101zM646 167c0 39 -6 72 -19 100h-99v107l9 9c-16 24 -38 26 -128 27c-11 0 -15 4 -15 18h-14l-17 -14c-58 -9 -59 -10 -93 -31
h224c7 0 11 -17 11 -51c0 -19 -3 -41 -8 -66h-80c7 -9 14 -19 21 -30c103 0 169 -2 197 -6c3 -35 4 -54 4 -59c0 -14 -2 -33 -7 -58h-174l-6 -30h49v-116h-242c0 59 -4 108 -11 146h-125v117c54 -4 68 -5 84 -5c43 0 71 12 83 37l-31 1l-5 107c-18 -13 -27 -29 -27 -49
c0 -9 1 -17 3 -37c0 -9 -2 -15 -6 -20h-180v-32h15c7 0 18 -2 35 -7v-115c-3 3 -7 4 -12 4c-8 0 -15 -1 -22 -4l7 -27h160c4 -39 5 -60 5 -61c0 -13 -2 -33 -7 -60h-100l24 -30h215l6 -4v-88l28 6v88h171c6 8 13 18 21 31h-58l-4 104c0 13 20 19 59 19c3 0 41 -2 53 -3
c1 20 5 78 6 82z" />
    <glyph glyph-name="seven" unicode="7" horiz-adv-x="679" 
d="M639 589c0 -17 -30 -114 -238 -785h-251l234 768h-158c-12 -18 -12 -32 -15 -101h-211l10 317l623 13zM595 568h-114v125h114l-1 55l-5 -20h-251v26h-30c-1 -7 -3 -17 -7 -30h-125c-55 3 -56 3 -74 3c-2 4 -4 12 -7 25h-22c-3 0 -5 -5 -6 -15c-1 -9 -3 -14 -8 -14
c-3 0 -6 1 -9 2v-32h137c9 0 12 -17 13 -81h25v79h220v-120c-11 0 -23 -17 -23 -32h163c5 13 8 22 10 29zM545 397c-1 2 -1 6 -2 15h-161l-13 -33h75v-123h-113c-19 -68 -29 -121 -30 -158c-17 3 -21 4 -25 -32h163c3 5 6 13 9 23l-2 8h-51c-29 0 -48 2 -57 6v112l7 9h143
c2 7 5 17 10 30l-19 7c0 2 -3 93 -4 104c0 11 12 16 35 17s35 6 35 15zM177 540v29h-129l-6 -6v-24l4 1c13 0 23 -14 23 -33h20c3 0 6 1 12 4v29h76zM399 -60h-163l-12 -28h69c8 -9 12 -20 13 -33v-35h32c0 57 0 57 6 66c54 3 55 3 55 30z" />
    <glyph glyph-name="eight" unicode="8" horiz-adv-x="753" 
d="M709 98c0 -184 -136 -296 -358 -296c-223 0 -351 98 -351 269c0 97 44 175 132 236c-82 54 -123 125 -123 213c0 172 158 282 348 282c197 0 323 -105 323 -271c0 -73 -34 -141 -102 -205c79 -44 131 -135 131 -228zM415 504c0 61 -24 91 -73 91c-42 0 -71 -37 -71 -90
c0 -56 27 -91 71 -91c49 0 73 30 73 90zM590 401h-171c-6 -11 -16 -17 -55 -30c33 1 52 1 56 1c37 -3 58 -5 65 -5v-39c22 0 29 6 29 29c0 3 -1 6 -2 9c7 5 14 8 22 9h-3c36 -3 48 -2 59 26zM663 71v28l-10 8c0 97 -22 146 -65 146c-7 -1 -54 -3 -55 -3c-15 0 -22 13 -22 40
c0 19 -1 19 -26 24c0 -38 -2 -58 -5 -61h-244v111l5 7h79c-33 26 -38 26 -138 29c-36 0 -63 2 -81 5v114l131 5c2 36 7 147 7 148h237l8 -5v-109l-11 -7l-21 2v-27l157 2c17 0 18 -12 19 -57c8 26 12 45 12 57l-1 25h-123v119h74l-33 31h-174c-9 10 -10 40 -10 58h-23
c-2 -3 -2 -5 -2 -40c0 -8 -2 -14 -4 -18h-197l-34 -31h92v-123h-152v-28l19 -6c3 -140 7 -143 101 -143c14 0 25 -2 34 -7l-1 -24c0 -15 8 -24 24 -28c-13 -6 -20 -13 -22 -20v-29c0 -12 -10 -14 -58 -11c-61 0 -79 -39 -79 -150l-27 -5v-34h161v-118h-124l20 -29
c91 2 107 2 128 2c49 0 86 -1 117 -5c2 -23 2 -36 2 -47c0 -10 0 -18 -2 -25h30v77h214l28 29l-106 5v73c0 1 1 17 5 45h146zM625 186c-3 -40 -3 -55 -3 -57c0 -9 1 -18 3 -25h-158c-1 -1 -4 -12 -8 -34l23 -5v-111h-244v108c1 3 2 6 7 16l-8 24h-136v113h187
c19 16 42 24 67 24c14 0 60 -13 65 -22h199c4 -20 6 -30 6 -31zM420 105c0 63 -23 94 -70 94c-41 0 -67 -39 -67 -100c0 -57 23 -85 68 -85c46 0 69 30 69 91z" />
    <glyph glyph-name="nine" unicode="9" horiz-adv-x="745" 
d="M715 328c0 -312 -138 -526 -343 -526c-49 0 -94 14 -135 42l-8 -19h-199v319h207c4 -87 32 -131 83 -131c77 0 115 60 115 180l-5 1c-41 -18 -90 -27 -145 -27c-165 0 -285 120 -285 286c0 208 141 349 349 349c142 0 366 -77 366 -474zM669 403c-51 0 -77 2 -80 6v105
c15 9 23 13 26 14h31v8c-1 3 -3 7 -8 17l-153 -2c-8 0 -8 1 -11 15l7 110h85c-21 25 -60 37 -117 37c-10 0 -10 0 -92 -4l-6 52h-29v-52h-164l-34 -31c56 0 58 0 69 -6v-108l-5 -7h-132c-7 -13 -9 -18 -10 -21v-144c0 -13 10 -20 31 -20c4 0 4 0 42 4c19 0 43 -2 70 -7v-114
h-52c21 -21 53 -32 96 -32h63c17 0 27 -5 30 -16c86 27 98 31 122 48h-230v109l20 11h30c-2 7 -7 16 -13 28h-168l-5 6v118h169l8 28h-39v119h232c-4 -69 -5 -102 -5 -115c0 -24 10 -36 29 -36c3 0 21 2 53 7c2 0 11 -3 28 -9v-75c0 -1 -1 -17 -5 -44h-104l-13 -29l10 1
l10 -7v-104l18 9l6 -7c0 43 2 79 6 109h184v29zM415 469c0 69 -20 103 -59 103c-42 0 -63 -33 -63 -100c0 -63 20 -94 60 -94c41 0 62 30 62 91zM669 252h-184l-5 3v-35c30 0 56 -2 78 -5l1 -88c0 -18 -2 -25 -7 -29h-87c-7 -17 -11 -44 -11 -79v-62l-5 -7h-225
c-7 16 -11 41 -13 76s-6 60 -11 76h-120l-10 -10v-20c47 0 88 -2 123 -5v-75c0 -11 -2 -25 -7 -42h-110l6 -80v50h158c7 0 35 -2 84 -5v-68h29c0 61 0 61 6 70h189l22 31h-91v112l6 9h150l7 29c-28 0 -34 0 -50 5v118h77v31z" />
    <glyph glyph-name="at" unicode="@" 
 />
    <glyph glyph-name="A" unicode="A" horiz-adv-x="1008" 
d="M981 -195h-475v194l71 1c-4 26 -15 62 -33 107h-188c-10 -21 -21 -57 -32 -107c25 0 49 -2 73 -5l6 -173c-1 -4 -2 -8 -6 -20h-391c-5 76 -6 97 -6 189l74 6l45 130c143 448 222 675 234 675h281c143 -476 190 -625 251 -796l92 -6c2 -43 3 -108 4 -195zM695 463v16
c0 7 -8 10 -61 19v114l13 10c-3 5 -6 15 -9 28c-72 0 -121 2 -146 6v104h-26c2 -31 2 -43 2 -49c0 -27 -3 -44 -11 -57h-120c-9 -23 -13 -49 -13 -79v-75c-5 -3 -12 -5 -20 -5c-5 0 -10 1 -16 2c-3 -8 -7 -19 -13 -34h135c1 0 6 11 14 34h-76v65c1 35 4 55 7 58h251v-126
h-123l12 -31h200zM485 321c-7 32 -17 67 -32 104l-31 -104h63zM937 -151v13c-5 3 -13 5 -23 8v85h-28v-78l-5 -9h-247v87h-28v-80c-5 -5 -13 -7 -23 -7h-34v-19h388zM842 -9l-11 35h-57v119l17 4l-5 28l-152 5v115l7 9h103l-8 28h-202c0 -28 0 -32 54 -26h-1
c9 0 16 -2 21 -7v-98c-1 -2 -2 -9 -5 -23h-246l-7 8v111l18 9c3 7 6 15 7 27l-89 3h-53l-9 -28h93c5 -9 7 -22 7 -39c0 -37 -2 -66 -7 -89h-135c-4 -20 -6 -47 -6 -80v-55c0 -17 0 -17 -33 -17l-8 -1c-3 -7 -8 -19 -14 -34h153l10 32c-71 0 -72 0 -81 7v70c0 2 1 19 5 47
l446 1c39 0 69 -2 90 -5v-123h-123l12 -42l8 9h201zM360 -150v16c0 3 -4 6 -12 9v80h-28c2 -24 3 -35 3 -44c0 -22 -2 -33 -8 -41h-246c-10 0 -12 24 -7 85h-14v-105h312z" />
    <glyph glyph-name="B" unicode="B" horiz-adv-x="883" 
d="M837 95c0 -189 -128 -291 -335 -291h-490v194l97 1c5 22 7 34 7 37c0 241 -8 557 -16 562h-100v194c185 6 290 7 316 8h246c138 0 245 -111 245 -253c0 -88 -34 -156 -102 -204v-7c81 -52 132 -145 132 -241zM746 626c-3 23 -18 35 -43 35h-62c0 11 1 28 3 57
c0 25 -4 29 -30 29v-72c0 -15 -1 -15 -29 -18c-121 0 -196 2 -225 6v91h-32c0 -59 -2 -91 -5 -96h-196v92h-25v-88c-6 -7 -7 -7 -55 -7l-4 -8c84 -3 108 -8 109 -21l15 1c12 0 17 -2 20 -7v-121h-33v-31c116 0 175 -1 176 -4v36h-107v124h103l9 20l78 2c1 0 60 -12 93 -20
h240zM514 512c0 71 -40 83 -134 83v-170h60c43 0 74 37 74 87zM333 410v52h-4v-52h4zM784 39h-136v121h134l-20 53l-2 -19c-36 -4 -73 -7 -111 -7c-24 0 -48 1 -73 3c2 -10 5 -21 10 -32c3 3 6 4 9 4c5 0 11 -2 18 -7v-101c0 -4 -1 -9 -3 -16c-8 3 -13 4 -16 4
c-8 0 -12 -3 -41 -39l198 3c9 0 13 -4 13 -15c0 -5 0 -10 -2 -15c9 15 16 36 22 63zM758 501h-193l-6 -33h55v-122h-249l-5 28c-17 0 -21 1 -27 6l1 -13c0 -11 -3 -19 -9 -23h-169v-32h33v-117l-17 -7l-12 2v-32h163l9 -5v-110l-7 -9h-163v-34h25v-120h-130v-31h478
c41 0 84 10 131 31h-160v91l-31 -6c0 -76 0 -76 -6 -86h-246v97c0 2 2 10 6 25h107v189h-108l-6 5v117h249c2 -49 7 -60 35 -60c0 56 0 56 6 62h146l-39 25c21 27 31 52 31 76c-4 22 -5 37 -5 38c0 16 25 19 105 19zM540 113c0 84 -33 103 -153 97v-198h51
c68 0 102 34 102 101z" />
    <glyph glyph-name="C" unicode="C" horiz-adv-x="780" 
d="M748 127c0 -190 -150 -325 -360 -325c-154 0 -388 78 -388 474c0 188 52 526 351 526c55 0 109 -14 164 -42c11 6 15 7 18 9h200v-347h-226c-5 12 -10 37 -15 76c-8 80 -30 109 -88 109c-81 0 -121 -86 -121 -258v-157c0 -104 53 -188 117 -188c72 0 97 63 97 217h251
v-94zM688 475l-113 6v71c0 4 2 19 5 46h105v108c0 -17 -2 -43 -7 -78h-191c20 -30 20 -30 42 -30c5 -2 10 -4 17 -6v-124h140zM445 744c-32 12 -64 18 -95 18c-30 0 -61 -6 -94 -17h148l9 -9v-84h26c0 50 2 81 6 92zM324 625h-143c-10 0 -10 2 -10 61
c-15 -7 -17 -11 -31 -57c-13 -5 -21 -8 -23 -11c-1 0 -6 -7 -16 -20c146 0 151 0 180 -7v-13zM250 447c-3 3 -4 6 -4 9c0 1 0 2 4 19h-188l-6 -28h81c6 -6 9 -9 9 -10v-71c0 -12 -3 -25 -9 -38h-93v-30h191v28c-41 0 -54 1 -64 5v108c0 3 2 5 5 8h74zM704 178h-125
c-4 -1 -17 -3 -27 -4c-5 0 -10 2 -13 4v-26h142c4 -35 4 -54 5 -59c0 -15 -2 -34 -6 -59h-166l-22 -32h57c0 -51 0 -66 -4 -116h-237v110c-23 25 -37 38 -42 38c-29 -4 -37 -5 -61 -5c-7 0 -17 2 -32 7l-2 81c1 3 2 14 5 35h64v26h-187v-29h89v-117h-55c5 -12 9 -22 14 -30
h174l8 -7v-104c-9 -8 -30 -9 -61 -9c15 -14 38 -23 71 -26h78c5 0 34 -6 62 -11c31 0 80 17 145 51l-1 96c0 8 15 13 46 14h49c21 38 32 98 32 172z" />
    <glyph glyph-name="D" unicode="D" horiz-adv-x="876" 
d="M866 304c0 -378 -153 -502 -608 -502h-249v195c111 3 111 3 111 42l-9 556c-31 5 -43 5 -103 5c-6 52 -7 81 -8 88v104c65 3 225 6 480 8c250 0 386 -174 386 -496zM804 471l-8 32h-100v126h46l-29 32c-65 -3 -89 -3 -94 -3c-30 0 -52 2 -71 8v84h-31v-88h-247
c-5 19 -7 51 -8 94h-28v-94h-184l-3 -9l4 -9h76c0 1 -7 1 -22 1c33 -1 51 -6 55 -16h172c0 1 46 17 61 17c182 -15 195 -16 238 -16c18 0 30 -2 36 -8v-112c-5 -5 -13 -7 -24 -7l-42 -1v-31h203zM815 319v49c0 7 -3 36 -8 86v-56c-1 -29 -3 -46 -8 -51h-186v-28
c23 0 41 -3 54 -9v-109c0 -7 -10 -11 -30 -11c-9 0 -19 1 -32 2v-29c105 0 172 -1 201 -4v32c-58 0 -96 2 -115 5c0 109 1 114 9 123h115zM564 323c0 225 -37 272 -173 272v-581h47c84 0 126 103 126 309zM337 319v28h-72v115c8 7 32 11 71 11v29h-172v-29c60 0 61 -1 71 -7
v-109c-10 -10 -14 -11 -35 -12c-4 0 -8 0 -36 2v-28h173zM765 40h-197c-8 0 -26 -21 -36 -33c46 2 55 3 69 3c33 0 50 -3 65 -9v-82c13 5 21 14 23 26v35c0 25 3 27 58 27c4 7 10 18 18 33zM344 5v33c-49 0 -76 1 -79 4l-2 60c0 15 2 35 7 59h70v31h-174v-32h69v-109
c0 -10 -23 -15 -69 -15v-31h178zM609 -118h-198c-4 11 -5 21 -5 81h-30c0 -71 0 -72 -5 -82c-72 -2 -113 -2 -123 -3c-10 0 -52 2 -125 6v72h-31v-66c-6 -6 -11 -9 -16 -9c6 0 6 0 9 1h-28v-29h413c54 0 100 10 139 29z" />
    <glyph glyph-name="E" unicode="E" horiz-adv-x="818" 
d="M777 154l-13 -341c-234 0 -270 -1 -747 -11c-5 73 -7 115 -7 125l2 67c9 3 29 4 60 4c16 0 30 3 41 9v584c-13 4 -13 4 -85 4c-2 0 -11 1 -26 4v189l643 12h102l21 -330h-199c-14 105 -21 134 -35 134c-74 0 -89 0 -147 -4c-3 -9 -5 -21 -5 -36l2 -141l9 -7h190l6 -217h2
c-121 5 -187 2 -201 -10v-184h147c21 0 34 47 40 141c24 6 37 7 40 8h160zM725 4v31h-98v76c-11 -15 -13 -22 -30 -107h128zM720 -147v26h-235v81h-29l1 -46c0 -15 -2 -27 -7 -35c-16 0 -52 -1 -143 -5c-8 0 -41 2 -100 7v112l5 9h133v184h-138v119l7 7h235
c8 -21 9 -29 9 -69h28v60c6 6 16 9 54 9v28h-185c-9 0 -13 15 -13 44v112h-130l-5 6v111c45 5 83 8 132 8l10 21l235 2l8 -21h122v31l-87 1v103h-28v-105h-247c-5 9 -7 21 -7 35l-1 64h-27v-99h-255v92h-15v-103h91l17 -21h20c4 -47 6 -73 6 -78c0 -31 -7 -47 -24 -47v-31
h151l8 -5v-120h-158v-27l19 -8l2 -96c0 -25 -1 -25 -19 -25v-31h154v-122h-150v-29c11 0 17 -20 17 -60c0 -33 -2 -56 -7 -67h-117v-22c35 -3 73 -4 112 -4c33 1 550 4 551 4z" />
    <glyph glyph-name="F" unicode="F" horiz-adv-x="786" 
d="M766 476h-196c-25 99 -30 115 -40 129h-144l-7 -9v-172c17 -4 37 -7 60 -8c25 0 52 1 122 3l8 -9v-206h-182c-5 -32 -8 -57 -8 -76v-122l7 -7h91v-196h-476v197h100l5 8v589c-15 9 -19 10 -104 10v194h738zM708 624l-17 132c0 -44 -2 -78 -6 -102h-246l-7 5v103h-28
c-1 -23 -3 -58 -7 -104h-235c-3 1 -6 2 -16 7v97h-32c0 -90 0 -91 -7 -103h-65v-12h103l5 -25l56 1c36 0 44 -1 54 -7l2 -107l-7 -11h-105v-34h184v32h-24c-8 0 -14 2 -18 5c0 29 2 70 7 121h35l-1 4c0 20 0 20 142 26c73 0 102 -10 102 -36c4 0 123 7 131 8zM525 338l-93 6
v31h-29v-9c0 -11 -2 -19 -6 -24h-247v-31c36 0 73 -3 110 -8v-75c0 -11 -2 -26 -7 -43h-102v-34c112 3 132 4 185 4v28l-44 6v113l5 6h227zM433 -152h1l-1 22c-121 0 -122 0 -143 6v92c0 24 7 28 46 28v34h-184v-37h108v-114l-7 -9h-209v-8c1 -3 2 -6 6 -14h383z" />
    <glyph glyph-name="G" unicode="G" horiz-adv-x="796" 
d="M746 -182l-147 2c-6 24 -17 36 -34 36c-131 -48 -149 -54 -199 -54c-224 0 -366 189 -366 479c0 312 145 520 366 520c47 0 95 -14 142 -41l9 9h197v-320h-198c-15 118 -37 155 -104 155c-88 0 -132 -108 -132 -325c0 -159 20 -283 107 -283c69 0 95 54 95 184h-87v193
h345l6 -5v-550zM673 491v145h-111l-7 5v88c-4 -2 -7 -8 -10 -18c-3 -9 -7 -15 -14 -16c-2 -50 -2 -52 -7 -58h-66c59 -32 59 -32 77 -32h123v-114h15zM404 754v3h-89v-3h89zM376 637h-90v112c-6 -1 -16 -3 -27 -7v-104h-127c-4 -7 -9 -18 -15 -32c7 -3 11 -14 11 -33v-36
c0 -17 -2 -34 -7 -50h-21c-27 0 -41 -6 -41 -17c1 -2 1 -6 2 -14h189l5 29l-102 5v109l6 8h164c9 8 27 18 53 30zM703 309v15l-6 8l-238 4c-13 0 -20 -7 -20 -20c1 -2 1 -2 2 -7h209l8 -7v-91c-1 -3 -2 -8 -5 -21h-127v-142c-14 0 -14 0 -26 -36h156v-120c-3 2 -8 3 -17 3
c-1 0 -15 -1 -40 -4c5 -20 17 -30 37 -30h66v34l-11 2v115h12v32h-148v116h148v26l-14 4v119h14zM242 191h-89v92c0 4 3 13 8 28h78v28h-190v-30h72c5 -14 7 -25 7 -32c0 -24 -2 -53 -7 -87h-68v-27h189v28zM538 -104h-117v58h-28v-28c0 -16 -3 -25 -8 -31h-189
c36 -25 66 -40 89 -43l6 11h197c10 8 27 18 50 33zM280 12c-5 10 -12 23 -20 43l-6 -11h-168c5 -20 18 -32 40 -37c0 -39 5 -55 26 -76c1 19 3 46 8 81h120z" />
    <glyph glyph-name="H" unicode="H" horiz-adv-x="975" 
d="M923 -198h-427c-5 23 -6 36 -6 39v156h58l15 10v198c-24 3 -37 4 -40 5h-174l-9 -5v-200c11 -6 12 -6 84 -6v-195h-423v195c13 -1 24 -2 34 -2c23 0 39 4 46 12v589c-37 5 -64 8 -81 8v191h427v-192h-78l-7 -9v-167c18 -4 37 -6 56 -6h165l5 7v167c-11 3 -31 5 -59 5
c-3 1 -7 2 -18 6v189l221 4h207v-195c-55 0 -71 0 -83 -14l4 -585c9 -8 9 -8 83 -8v-197zM382 648v9h-31v101h-31v-105h-201c-2 0 -20 2 -53 6v98h-26l4 -5c-2 -5 -3 -40 -4 -106c12 2 21 3 28 3c5 0 23 -1 54 -3c-3 -6 -4 -11 -4 -14c0 -11 4 -12 60 -18c2 -8 3 -22 3 -43
c0 -27 -2 -53 -6 -76h-50v-31h171v33h-83v119c10 5 11 5 83 5v13c0 6 2 11 6 14h80zM880 -154v27h-95v105c7 9 11 18 11 25v29h-158v113l8 9h148v23l-9 12v110l7 13v27h-154v116l8 8h146c-5 19 -7 29 -7 31v122c4 3 4 5 13 32l76 5c-83 -4 -119 -5 -139 -5
c-39 0 -72 4 -97 11c1 10 4 88 4 91l-4 8h-26v-107h-72c3 -1 3 -2 72 -9l-1 -21c93 3 130 1 147 -7v-93c0 -2 -2 -11 -7 -26h-137c2 -26 3 -49 3 -69c0 -44 -5 -73 -14 -86h-248l-6 43h-30v-42h-193v-30h19c27 0 36 -10 36 -42c0 -31 -3 -60 -8 -85h-47v-30h164v30
c-69 0 -70 0 -79 5v95c0 27 0 28 146 28c48 0 83 -3 111 -8v-51h32v55h253l5 -4v-77c0 -3 -2 -17 -7 -43h-139v-188c124 0 125 0 146 -6v-46c0 -18 -2 -42 -7 -72h-213l-2 -16l4 -10h340zM376 -152v25h-165v114l5 9h74v36h-164l-1 -36c44 0 46 0 53 -5c0 -14 1 -42 3 -62
c0 -15 -3 -34 -8 -59h-133c0 -10 0 -10 6 -22h330z" />
    <glyph glyph-name="I" unicode="I" horiz-adv-x="496" 
d="M445 -196h-438v194h88c5 7 7 22 7 44c0 369 -4 556 -13 561h-88v191c13 3 18 4 21 5h418v-189h-44c-29 0 -44 -11 -44 -33c0 -87 5 -486 7 -575h86v-198zM397 -152v24h-204v75c0 1 1 18 5 50h115v186h-120v124h117v188h-110l-7 5l-2 83c0 3 2 16 7 39h112l-2 10
c0 15 0 15 87 23h-55c-5 7 -7 26 -7 55l-1 48h-26c0 -90 0 -91 -7 -104l-206 -2c-3 1 -17 2 -43 5v92l-1 -100c52 4 52 4 56 4c30 0 37 -10 37 -31l19 -3l2 -99c0 -25 -3 -25 -21 -25v-32h158v-125h-158v-19c19 -17 20 -29 21 -81c0 -38 -6 -57 -17 -57v-27h149l9 -7v-116
h-158v-34l17 -8v-110l-6 -7h-106v-19l6 -5h340z" />
    <glyph glyph-name="J" unicode="J" horiz-adv-x="798" 
d="M750 610h-87c-11 -27 -16 -68 -16 -123c0 -7 7 -170 15 -330c0 -246 -77 -355 -253 -355c-48 0 -73 8 -185 45l-7 -26h-216v400l7 6h216v-69c0 -90 31 -135 94 -135c56 0 84 30 84 89v492h-88l-6 75c0 10 2 50 6 121h436v-190zM704 653v104h-20v-92l-7 -7h-176v99h-27
v-53c-1 -27 -4 -43 -9 -47h-112l2 -8h84l9 -16l-2 -8h140l9 -5v-116h-149v-31l13 2c2 -1 5 -2 13 -5v-113c-3 -5 -4 -5 -26 -5v-32h148v-117h-148v-33l23 -5v-116c-31 0 -43 -4 -53 -31h177c7 -7 8 -11 8 -32c7 23 10 45 10 66h-105v118h106v183h-106v122h107v170l7 8h84z
M541 -104h-67c-13 0 -29 -1 -56 -3c-18 0 -36 2 -54 5c0 14 2 46 3 69c0 5 -1 10 -3 15c-6 -2 -15 -5 -27 -8v-83h-93c23 -20 58 -30 104 -30c9 1 87 4 88 4c21 0 32 -3 35 -9c25 3 48 17 70 40zM180 166v14h-133v-14h133zM212 14c-4 7 -10 18 -17 33h-152v-28
c0 -3 1 -6 4 -9l13 -1l-2 -108c-15 -11 -15 -12 -15 -19v-17c2 1 6 2 11 2l21 -2h107l6 6v22h-52c-17 0 -34 2 -51 5v43c0 17 3 42 8 73h119z" />
    <glyph glyph-name="K" unicode="K" horiz-adv-x="981" 
d="M945 -197h-453c-5 24 -5 37 -6 40v156h46l1 7l-115 177l-61 -60v-115c5 -4 9 -5 69 -15v-190h-426v196c83 0 84 0 93 6v589c-13 6 -27 9 -44 9h-47v187l12 8h412v-195c-11 1 -21 2 -30 2c-20 0 -33 -4 -39 -11l3 -181c59 44 123 106 190 185c-9 4 -21 5 -62 5
c-4 55 -4 86 -5 93v100l446 6v-197h-76l-225 -229c54 -84 135 -209 241 -377h76v-196zM884 749v11h-354v-9c15 0 22 -1 29 -6v-98h33v101h247c2 -7 3 -18 8 -101h28v97c3 2 6 4 9 5zM806 627h-158c-3 0 -15 -11 -37 -34c49 0 81 -2 96 -5v-67c20 17 30 33 30 48
c0 5 -1 10 -2 15c7 6 18 10 33 13c13 1 25 11 38 30zM740 -151v123h91l-21 35h-216v122h138l-24 35l-3 -7h-213c4 -24 7 -24 72 -36v-79c10 -15 25 -39 44 -71h91l9 -7v-91c0 -4 -3 -12 -9 -23l-166 -1h207zM656 469h-170l-29 -33c55 0 90 -2 103 -6c3 -35 4 -54 4 -58
c0 -15 -3 -35 -8 -60c-205 0 -231 0 -238 -7c-5 9 -9 49 -14 121l11 14v30h-150v115l5 8h142v22c-8 97 -8 108 -8 124l7 12h70v9h-309c-2 0 -10 -2 -24 -7c169 -4 173 -4 216 -4l9 3v-123h-130l-8 -6v-188h138v-123h-138v-184h131l9 -7v-114h-138v-145l-14 -14l242 -4
c2 1 6 2 16 5h-214v122h150v35l-10 15v100c3 10 10 22 21 37h-156l-6 6v115h255c0 -22 0 -23 28 -58c-2 53 6 70 81 70c56 -5 92 -7 102 -7c-13 19 -26 31 -40 34c2 22 -1 36 -17 60c8 6 12 15 13 28s4 22 7 27c32 0 41 5 61 36zM87 -153v3h-43v-3h43z" />
    <glyph glyph-name="L" unicode="L" horiz-adv-x="776" 
d="M760 205l-34 -403h-725v197h83l9 15l-5 583c-11 5 -11 5 -82 5v197h437v-196h-82v-593c17 -7 26 -8 28 -9l115 2c13 29 28 100 45 215h205zM709 133v29h-84c-3 8 -9 12 -18 12c-22 0 -23 -2 -33 -41h135zM693 7h-142v-32l14 1c12 0 17 -1 24 -6v-112
c-15 -5 -28 -7 -37 -7h-216v106c-21 0 -21 0 -21 50h-75v121h71v188h-77v119l76 6v190h-74v118l5 8h-32v-121c-9 -7 -13 -8 -72 -8v-28c66 0 118 -2 157 -7v-121h-155v-32h63l5 -109l-12 -16h-56v-28c11 -3 26 -4 42 -4c10 0 29 1 77 4c13 0 26 -2 38 -6v-121h-157v-33l34 2
c1 0 13 -2 36 -6v-109c-5 -7 -6 -7 -69 -7v-36h160v-115l-3 -6h385c-13 1 -33 3 -59 7v94c-1 2 2 10 6 24l64 2v30zM120 -150c-2 1 -5 3 -8 6v100h-32v-105l-29 -1h69z" />
    <glyph glyph-name="M" unicode="M" horiz-adv-x="1239" 
d="M1188 -196h-412l-6 69v122c56 7 57 7 63 13v237c0 15 -2 33 -5 52c-96 -363 -109 -411 -155 -495h-217c-14 15 -42 122 -135 495c-6 -5 -9 -14 -9 -27l1 -266l61 -7l3 -95c0 -8 -2 -41 -5 -98h-368v189c9 6 10 6 76 6l6 7v595h-85v195h488l110 -444c11 6 40 103 141 446
h441v-193h-69l-6 -19l4 -583l74 -6l4 -71v-122zM1136 648v114h-12v-114h12zM1144 -138h-106v117l26 5v33h-163v120h163v34h-26v117l26 6v30c-67 -3 -92 -3 -97 -3c-26 0 -52 2 -70 6l-1 44c0 28 0 44 5 74h163v36h-29v122h29v34h-172v121h-29v-124h-128
c-10 -21 -15 -45 -16 -71v3c1 -6 1 -32 2 -78c0 -6 -6 -9 -19 -9l-7 -1l-17 -33h143l8 34h-74v125h114l8 23v-22h125v-127h-125v-187h127v-124h-127v-185h128v-122h-185v-14h318c5 3 7 7 7 11c0 2 0 3 -1 5zM529 443v22l-10 8h-49v122c8 4 16 6 23 6c-5 13 -8 23 -8 31h-164
c3 4 4 11 4 21c-4 41 -5 59 -5 68c0 5 3 17 8 35h-37v-123l-12 -6c2 -5 5 -14 8 -28h148v-126h-114v-10c1 0 3 -6 8 -20h200zM271 597v31h-138v-28c0 -6 2 -7 20 -10v-115c-3 -3 -5 -4 -20 -4v-33h56c6 0 33 2 82 6v28h-90v118c11 7 16 7 48 9c5 0 16 0 42 -2zM783 322h-131
c-7 0 -9 -4 -22 -32h59c0 1 -4 1 -11 1c17 -1 32 -4 45 -10v-110l-5 -7l-237 -2l-10 7v110l7 9h89c-1 7 -4 16 -8 29h-196v-19c0 -9 8 -13 23 -13c9 0 17 1 34 3c7 0 14 -2 22 -7v-119h-41c2 -7 4 -17 7 -30h170l6 -5v-92c0 -19 -19 -29 -57 -29c-9 0 -14 0 -87 6l36 -127
l1 92c211 0 214 0 216 15l-1 23h-77v114c18 7 19 7 115 7c17 33 19 55 29 152c15 0 19 7 24 34zM268 286v29h-139v-30h24v-123h-20l-6 -32h140v33h-81v114c0 3 2 6 5 9h77zM651 -142h-171c2 -9 5 -12 12 -12l157 2zM330 -147h-137l-5 5v110c0 3 2 6 5 9h74v33h-140v-37h30
v-121l-111 -3l280 -3z" />
    <glyph glyph-name="N" unicode="N" horiz-adv-x="945" 
d="M891 605h-75l-6 -9v-792h-304l-223 526l-5 -6v-318c11 -7 12 -7 85 -7c5 -77 6 -99 6 -197h-363v193c11 3 19 4 55 4l22 12v579c-7 7 -21 11 -44 11c-9 0 -20 -1 -33 -2l-6 171c-1 2 2 10 6 24h378c155 -378 165 -403 211 -488l3 33v257c-13 6 -41 9 -85 9l-5 193
c1 0 24 0 171 4h159c25 -3 34 -4 37 -4c6 0 12 1 16 3v-196zM822 643v119h-25v-119h25zM766 446v31h-81v104c0 5 1 11 4 18h76v30c-6 3 -11 4 -16 4c-1 0 -1 0 -15 -4h-88v-31c6 -1 9 -7 9 -17v-104c-6 -3 -9 -6 -9 -10v-21h120zM767 289v31h-119c0 -1 0 -7 -2 -17
c0 -9 3 -16 9 -20v-114c-6 -5 -9 -10 -9 -15c2 -9 2 -9 2 -19h119v32h-79v122h79zM486 446c-1 19 -17 29 -49 29h-40v117c4 4 12 6 23 6c-11 28 -17 33 -25 33h-141v116l3 7h-38v-127h-92v-33h242v-123h-96c4 -6 9 -16 15 -31h97c8 0 42 2 101 6zM553 288l-41 91
c2 -12 3 -22 3 -29c0 -24 -19 -36 -58 -36c-15 0 -25 1 -63 5c-7 0 -26 -1 -57 -4c2 -7 6 -16 12 -28c5 0 12 -2 21 -5c0 -42 1 -46 27 -107l8 113h148zM767 -150v9h-78v121h77v34h-219l-7 5v72c0 10 2 25 7 44h70c-3 7 -7 17 -13 30h-201v-18c7 -11 19 -16 36 -16
c1 0 43 3 47 4c8 0 15 -2 21 -5v-118h-41l12 -32h172l7 -5v-118l-127 -7h237zM233 287v185h-104v-35h90v-122h-92v-28h106zM235 -24v187h-107v-34h94v-117h-93v-36h106zM327 -145h-214v100h-31c0 -63 -1 -88 -4 -100c-9 0 -19 -2 -30 -5l273 -3z" />
    <glyph glyph-name="O" unicode="O" horiz-adv-x="809" 
d="M784 305c0 -322 -141 -503 -392 -503c-241 0 -392 193 -392 491c0 320 147 509 397 509c243 0 387 -184 387 -497zM552 724c-25 21 -56 31 -94 31c-3 0 -3 0 -67 -4c-17 0 -31 3 -40 10c-7 0 -73 -13 -107 -35l187 -3c9 0 14 -7 15 -21v4c-3 -56 1 -74 20 -84
c3 43 5 77 8 102h78zM303 609c-69 0 -70 0 -81 5v98c-19 -7 -29 -18 -29 -33c0 -8 1 -22 3 -42v-25h-61c-22 0 -34 -10 -37 -31h183c4 7 11 16 22 28zM743 288v29h-30v109l21 5l-5 29h-146v117h105l-17 32h-190c13 -23 18 -25 66 -35c3 -37 4 -58 4 -62
c0 -33 -5 -51 -16 -53v-28c69 0 118 -2 146 -5v-111h-139v-18c5 -68 7 -103 7 -123l-11 -5v-28c73 0 121 -3 145 -9c0 -75 0 -77 -7 -108h-173l-31 -31c47 0 72 -1 75 -4l2 -42c0 -26 0 -39 -5 -70h-69c-10 0 -51 2 -123 7v56c0 38 -7 49 -30 49v-107h-92
c23 -24 96 -36 219 -36c35 0 102 28 130 45c0 89 0 90 7 102h85c38 75 46 97 46 125c0 6 -1 12 -2 18l12 12v23h-146v110l7 7h155zM494 200v187c0 80 -16 217 -105 217c-55 0 -100 -93 -100 -208v-160c0 -147 36 -220 109 -220c60 0 96 69 96 184zM314 -4
c-19 29 -22 30 -73 31c-3 0 -8 1 -20 4v105c5 7 6 7 30 7v29h-162v117h151v29l-8 -1l-11 6v101l19 12l7 -1v30c-99 0 -152 2 -158 5v89c-25 -62 -33 -89 -37 -124c116 0 117 0 144 -9v-101l-5 -7h-148v-16c0 -7 5 -11 15 -13v-145h105c22 0 33 -4 33 -12v-80
c0 -3 -3 -11 -8 -22h-90c5 -13 10 -25 17 -34h199z" />
    <glyph glyph-name="P" unicode="P" horiz-adv-x="847" 
d="M823 489c0 -223 -117 -300 -455 -300v-183c24 -5 33 -5 78 -5v-199h-446v203c43 -4 101 0 101 20l-6 582h-95v193h515c195 0 308 -114 308 -311zM773 449v30c-52 0 -86 2 -103 6v111c11 9 19 9 45 11c5 0 16 0 42 -2l-12 32h-209c-9 14 -13 21 -13 121h-26v-111
c0 -7 -8 -10 -23 -11c72 -31 73 -31 125 -31c16 0 30 -2 43 -6v-111c-5 -7 -6 -7 -71 -7c0 -2 -2 -13 -5 -32h207zM520 497c0 67 -26 100 -79 100h-71v-194c0 -9 13 -13 39 -13c74 0 111 36 111 107zM319 605v31c-63 2 -63 2 -80 6v113l8 7h-36v-116c-10 -9 -14 -10 -65 -10
v-31h173zM719 323h-186c-7 6 -10 11 -10 19c2 17 2 22 2 38c-19 -9 -20 -11 -33 -54h-246l-7 5v110l7 8h72v32h-172v-32c53 0 54 0 65 -5v-108c0 -10 -3 -10 -48 -10l-17 -1v-30h209v-64h30c0 58 0 58 7 64h240c6 -5 10 -15 13 -32c7 2 18 12 32 30l19 3c7 5 14 14 23 27z
M322 -18v35h-79v121h79v30h-176v-30c23 0 44 -2 65 -6c0 -13 0 -15 -4 -105c0 -3 1 -7 4 -11h-65v-34h176zM398 -143c-6 1 -10 3 -13 5v95h-32v-98h-256v102h-27v-92c0 -9 -1 -9 -23 -15l7 -4h342z" />
    <glyph glyph-name="Q" unicode="Q" horiz-adv-x="713" 
d="M673 383c0 -206 -69 -370 -175 -419l39 -84l-163 -78c-12 22 -34 66 -67 133c-229 40 -307 148 -307 423c0 388 225 444 346 444c204 0 327 -157 327 -419zM635 366v58c0 19 -4 51 -11 94h-98v95c12 5 16 6 64 6c-5 13 -10 22 -14 28h-171v90c0 10 2 10 46 10l11 1
c-35 12 -73 18 -112 18c-33 0 -70 -6 -113 -19h139c4 -6 6 -14 7 -37c0 -8 -1 -20 -3 -45c0 -31 32 -46 97 -46c7 0 15 -2 23 -7v-88c-3 -4 -12 -6 -39 -6v-28h149l5 -4v-96h-147v-24h32v-98c-5 -4 -18 -6 -39 -6v-26c34 0 75 1 145 3c7 0 10 -4 12 -20l6 43
c-59 0 -92 2 -98 5v78c0 4 2 8 6 21h103zM617 210v9h-2v-9h2zM428 464c0 80 -43 162 -90 162c-60 0 -98 -100 -98 -257c0 -176 31 -264 93 -264c47 0 76 52 89 156c3 24 5 75 6 203zM595 138h-162l-17 -29c29 0 57 -2 84 -6v-93c24 12 25 19 26 70c0 20 5 30 15 30
c12 -2 20 -3 24 -3c13 0 23 10 30 31zM282 645l-62 -1c-2 0 -5 1 -13 4v85c-13 -5 -20 -14 -22 -26v-36c0 -10 -2 -19 -5 -27h-71c-23 -30 -30 -55 -35 -125l-5 1c-13 0 -14 -6 -19 -31h132v-100h-144v-23h21c9 0 16 -2 19 -6v-92l-16 -6h-18v-16c2 -3 2 -3 5 -10h133v-98
h-113c9 -23 20 -42 33 -58c0 14 2 25 7 31c15 0 21 0 82 -5h58l-16 30l-15 -1c-2 0 -4 1 -11 4v122c-27 0 -61 1 -104 4v94l6 7h93c0 64 4 114 13 150h-105l-7 5v91l6 7h149zM495 6v-1l-198 1c-4 6 -6 20 -6 44c0 21 -9 34 -27 40v-47c0 -16 -2 -28 -5 -36h-80
c27 -18 68 -27 121 -27h74l8 -6v-83c0 -2 -2 -6 -5 -14c3 -5 7 -11 11 -21c13 0 14 1 59 24h-39c0 69 0 75 4 99c32 0 34 0 83 27z" />
    <glyph glyph-name="R" unicode="R" horiz-adv-x="927" 
d="M881 -190c-39 0 -40 0 -196 -8c-153 0 -190 70 -190 256c0 119 -10 151 -65 151c-5 -1 -26 -3 -63 -9v-189c19 -7 29 -8 64 -8l25 -12v-187h-448c-6 60 -6 81 -6 195c15 -2 29 -3 41 -3c27 0 45 5 52 15l-3 593h-91v189c36 8 39 8 49 8l534 -3c121 -1 231 -122 231 -254
c0 -97 -40 -173 -121 -228c55 -37 82 -88 82 -153c0 -4 0 -15 -4 -80c0 -57 30 -79 109 -80v-193zM762 477v14h-32c-9 0 -17 2 -24 6v123h46l-15 30h-177v104h-31v-104h-249v108h-29l-7 -111h-101v-30h172c-4 23 3 25 77 25c20 0 47 -5 80 -14s59 -13 77 -13h122v-116l-5 -7
h-101c-28 -63 -32 -75 -33 -87l-2 -47c2 -13 2 -18 2 -19l-225 -3c-2 1 -11 2 -28 5c0 18 -2 65 -3 96c0 19 1 21 20 22l18 1v31h-169v-32c49 0 83 -2 102 -7v-116h-102v-30c203 0 205 0 249 -6v-47h28c-3 9 -4 16 -4 23c0 23 23 35 68 35c14 0 16 0 76 -6c31 0 59 11 84 33
h-81v120h171zM513 507c0 75 -37 91 -150 91v-141v2c1 0 3 -12 6 -36h71c42 0 73 35 73 84zM830 -127h-124v121h41l-12 34h-175v113l8 9h162v32h-25c-5 74 -8 87 -27 89c-3 -7 -5 -15 -5 -26v-35c0 -12 -2 -21 -6 -28h-129l8 -186c67 0 110 -2 127 -7v-112
c-11 -7 -12 -7 -78 -7c33 -14 66 -21 99 -21c8 0 54 1 134 5c1 3 2 10 2 19zM317 150v32h-172v-32c54 0 88 -2 102 -6v-118h-106v-34h176v35h-20c-7 0 -13 1 -18 2v112c0 5 5 8 16 9h22zM405 -150v104h-11c0 -43 -3 -71 -8 -84h-249v84h-34c3 -6 4 -15 4 -27
c-2 -29 -4 -58 -4 -59h-50v-18h352z" />
    <glyph glyph-name="S" unicode="S" horiz-adv-x="727" 
d="M680 119c0 -185 -120 -317 -290 -317c-55 0 -109 14 -162 43l-12 -30h-211v350h220c5 -7 7 -26 8 -58c3 -75 27 -103 87 -103c46 0 82 31 82 71c0 43 -35 81 -104 113c-111 52 -176 85 -194 98c-69 53 -104 125 -104 216c0 178 126 299 312 299c49 0 62 -4 174 -45l7 14
h168v-317h-203c-11 110 -38 158 -96 158c-44 0 -82 -40 -82 -86c0 -39 35 -73 104 -104c107 -48 171 -80 192 -95c69 -51 104 -120 104 -207zM621 578v32h-163c7 -12 13 -22 19 -30h33c5 -2 6 -13 10 -87h27v85h74zM440 729c-32 23 -74 34 -126 34c-45 0 -91 -11 -140 -32
l208 -4v-35c0 -44 2 -47 30 -47v84h28zM267 610h-133v95c-14 -5 -22 -13 -24 -25c1 -17 1 -54 -4 -69h-44c-1 -7 -3 -17 -7 -29c168 0 177 0 190 -8c4 9 12 20 22 36zM636 133v19c0 2 -1 6 -4 15h-85v117h13c-9 20 -30 30 -65 30c-39 -3 -49 -3 -53 -3c-22 0 -33 7 -33 22
v30c0 7 -3 12 -10 13h-17c0 -37 -2 -53 -7 -64h-231c23 -17 50 -26 96 -35c-2 -3 -3 -6 -3 -9c0 -8 7 -10 31 -17c1 7 3 18 6 33h196c3 0 18 -2 46 -6c0 -83 0 -83 -7 -111h-96l22 -34h201zM274 435c-6 10 -17 24 -32 43c0 -5 -1 -10 -3 -15h-192v-11c0 -3 2 -10 6 -22h55
c0 -97 0 -99 27 -110v109c23 4 70 6 139 6zM621 16h-187c-3 0 -13 -11 -32 -32h113v-107c19 5 28 17 28 36c-2 17 -3 29 -3 39c0 11 1 21 3 32c73 0 78 0 78 32zM492 -135h-201c34 -14 68 -21 101 -21c45 0 79 7 100 21zM268 -58c0 28 -5 35 -32 46c-20 30 -20 30 -38 30
c-13 -2 -38 -4 -39 -4c-8 0 -16 1 -25 3v104h-27c0 -24 1 -44 3 -79c0 -24 -6 -27 -42 -27c-7 0 -14 -1 -21 -3v-28h186c4 -7 6 -14 7 -23c-1 -16 -3 -38 -3 -48c0 -19 10 -30 31 -35v64zM182 -135h-133v-7h131c0 3 1 6 2 7z" />
    <glyph glyph-name="T" unicode="T" horiz-adv-x="853" 
d="M825 446h-202c-3 11 -5 22 -25 138c-9 5 -18 8 -27 8c-3 0 -10 -4 -22 -13l6 -577c18 -5 48 -7 91 -7v-193h-449c-5 23 -6 36 -6 39v159l84 1v585c-15 5 -24 7 -26 7l-24 -1c-4 -32 -10 -80 -19 -144h-206c0 63 3 133 25 353h776zM780 491c0 15 -2 41 -11 167v20h-133
l-6 6v78h-31v-81h-256v84h-29l3 -50c0 -5 -3 -18 -8 -37h-245l-6 37l-7 -70h111c7 -35 10 -63 11 -82c0 22 1 41 4 56l23 23h252v-121h-132v-185c69 0 114 -2 137 -5c2 -56 2 -63 -6 -120h-129v-194h137v-123h-224v-31c74 0 74 0 85 -7l-3 -12h32l-1 5c0 4 2 9 7 14h242
l9 -6v39h-119v110l16 16l8 -2v34h-164v116l8 7h156v34l-20 1v122h18v32h-157c-7 11 -7 12 -7 115l7 8h157v28l-24 11c-2 43 -2 61 -2 65c0 21 3 38 9 51h248v-99c0 -2 -2 -10 -5 -24h-81l5 -30h121zM168 490v29h-123v-29h123z" />
    <glyph glyph-name="U" unicode="U" horiz-adv-x="930" 
d="M880 612c-15 2 -28 3 -39 3c-22 0 -37 -4 -45 -11l2 -566c0 -155 -164 -236 -347 -236c-259 0 -365 138 -365 473c0 7 6 265 8 323c-36 8 -52 9 -92 9v185l435 5v-188c-54 0 -66 -2 -77 -14l2 -469c0 -56 49 -102 108 -102c80 0 118 47 118 142l-7 438h-84v197h366
c3 -1 7 -2 17 -7v-182zM834 655v26h-204c-5 11 -8 37 -9 76h-33v-77h-48v-21l6 -12h182v-115h-103v-31h125v138c10 10 38 15 84 16zM755 196v184h-125v-31h96c3 -6 5 -13 5 -21v-97h-100v-35h124zM755 45v31h-123c-2 2 -5 5 -8 9c-5 -14 -10 -28 -17 -42h120
c5 -6 6 -8 9 -56zM693 -80h-204v59h-34v-61h-198v113c14 8 15 8 90 8c-16 27 -25 56 -28 87c1 0 1 31 1 97h-66v121h64l-6 182h-60l-6 104c1 3 2 7 7 17h140v22l-4 11l-31 -1c-18 0 -18 8 -18 78h-29c-1 -17 -3 -43 -6 -77h-177v74h-29v-69c-7 -4 -22 -6 -45 -6l-12 -5v-26
c64 0 85 0 177 -8l5 -100c0 -11 -13 -16 -42 -16h-44v-29h172v-121h-168v-32h84v-94c0 -2 -2 -10 -7 -25h-75v-33h168v-122h-165l6 -29h30c35 0 52 -14 52 -43c-4 -43 -5 -57 -5 -72c0 -26 17 -29 90 -42l-3 -10c0 -8 6 -9 35 -15l6 31h238l6 -22c23 3 34 11 34 22l16 1z
" />
    <glyph glyph-name="V" unicode="V" horiz-adv-x="941" 
d="M906 609c-58 0 -65 -1 -77 -4l-225 -801h-303c-105 397 -167 618 -219 786c-31 8 -50 9 -76 9l-6 189l435 6l6 -189c-10 -4 -11 -4 -71 -11c37 -147 75 -285 114 -413c41 90 60 163 120 417c-12 5 -13 5 -96 5v193c25 0 25 0 77 4h315zM858 679l-197 -1
c-23 0 -35 5 -35 16v33c0 9 -1 19 -3 30h-26v-42c-1 -22 -4 -34 -9 -37l-16 1c-21 0 -24 -3 -24 -10v2c1 0 3 -9 6 -27h187v-74c0 -5 -2 -20 -5 -47h-105c-33 -137 -38 -153 -51 -186c11 0 113 2 125 3c5 8 6 12 6 31h-79v122h118c15 48 22 90 22 126c0 11 -1 21 -3 28h89
v32zM396 334c-5 14 -8 25 -10 33h-35v77c-1 30 -3 55 -8 75h-140v111c0 7 12 11 36 11h157v37l-26 -2l-25 2v75h-26c-1 -17 -3 -44 -7 -77l-207 -6c-16 0 -30 1 -41 4v75l-18 -2v-106c65 0 108 -3 130 -8v-111c-3 -4 -9 -6 -28 -6c3 -13 6 -23 10 -29h154
c7 -17 11 -36 11 -58c0 -23 -2 -45 -6 -67h-125l14 -52v24h190zM670 218h-44c-3 0 -31 -2 -84 -6c-1 -7 -3 -18 -7 -31h64c3 -25 5 -54 5 -87c0 -17 -2 -29 -5 -37h-100c-5 -23 -8 -28 -16 -32l-11 28l-119 6v112l5 8h81c-1 5 -6 16 -14 33h-192c0 -36 0 -36 70 -36l20 -1
c4 -58 4 -91 5 -99c0 -19 -4 -19 -52 -25c3 -6 6 -15 9 -28c99 0 159 -2 180 -5l2 -85c0 -24 0 -29 -3 -34c-3 0 -129 -3 -145 -4c11 -47 12 -48 36 -48l-1 3c0 11 16 17 49 18l174 2l8 32h-92v115l7 8h117c10 21 15 46 16 77c0 -8 0 -12 -1 -14v93h32z" />
    <glyph glyph-name="W" unicode="W" horiz-adv-x="1292" 
d="M1251 646l-4 -36l-58 1c-18 0 -19 0 -102 -470c-25 -139 -50 -252 -76 -339h-286c-62 317 -77 391 -89 438c-5 -4 -41 -149 -106 -434h-303c-33 162 -47 239 -143 792c-10 6 -10 6 -84 6v196h441v-96l-4 -100l-80 -1c0 -85 1 -88 52 -299c5 4 28 97 128 498h259
c8 -10 30 -117 104 -481l7 7c11 53 29 143 53 272c-30 5 -38 6 -75 6v194h366v-154zM1202 681c-37 0 -61 2 -72 5v74h-25c-3 -10 -5 -20 -9 -75h-81c-7 0 -36 -2 -86 -6v-26h273v28zM1111 526h-124c-1 -7 -3 -17 -6 -30h121c-1 -2 -2 -5 -2 -9c0 -2 1 -8 3 -19
c2 13 5 32 8 58zM1083 369v-1l-48 1c-76 0 -76 0 -80 -3l1 -99c-1 -19 -4 -35 -7 -49h-28v-33h124c2 12 4 23 6 34h-66v123h92zM1021 59h-179v126h39l-8 34h-177v114l5 9h150l-38 184h-110l-5 5v112l5 8h85l-7 30c-26 4 -58 4 -223 4v47l-18 -81l33 2c22 0 42 -1 95 -7v-116
c-100 0 -153 -1 -160 -4l-8 -29l29 -1l1 -113c-20 -10 -20 -10 -56 -10c-5 -8 -6 -12 -6 -31h143v32l-27 -2c-2 0 -11 2 -27 5v111l4 7h252v-124h-152l32 -188h111l9 -7c-3 -53 -4 -72 -4 -78c0 -15 2 -28 4 -40h-96l8 -31h217l9 -6v-112l-5 -7h-201v-22c9 -5 25 -8 49 -8
c11 0 17 -8 18 -23h27c0 15 14 23 41 23h106c4 14 4 20 4 30l-11 5v94c0 2 2 9 7 23c27 0 35 3 35 35zM392 651v34h-119v73h-29v-72h-197v-28c75 -10 80 -12 80 -35l1 28h264zM353 349l-2 24c-64 0 -66 0 -79 4v90l-4 10c0 15 10 19 56 19c1 2 2 5 2 8c-6 16 -9 24 -9 26
h-173c0 -35 0 -35 64 -32c31 0 34 -5 34 -40c0 -7 -2 -35 -6 -85h-64v-31h178c2 1 3 4 3 7zM581 219h-145l-6 -34c8 0 43 2 53 3c31 0 46 -11 46 -33c0 -36 -3 -68 -8 -97h-244l-9 7v120h117v11c0 2 -2 10 -6 25h-179v-36h36v-119c-11 -5 -11 -6 -11 -12l4 -21
c0 -3 -2 -6 -4 -8h148v-122h-122c5 -35 9 -47 16 -53v12c0 5 2 9 6 12h232v30h-97v124h127c5 12 11 43 16 92c4 39 11 62 22 67c1 7 4 18 8 32z" />
    <glyph glyph-name="X" unicode="X" horiz-adv-x="1017" 
d="M983 -197h-489c-5 80 -6 102 -6 196c30 0 36 1 51 7l-75 100c-15 -11 -44 -45 -86 -100c7 -5 13 -6 62 -15v-189h-434c-4 45 -6 71 -6 77v120h92l229 276c-49 66 -96 133 -143 199c-69 86 -128 129 -178 129v193h475v-197l-18 3c-15 0 -27 -1 -34 -4
c21 -35 50 -72 86 -109l87 112h-79v199h450v-191c-85 6 -86 6 -322 -298c33 -49 37 -55 242 -311h90zM922 650v26h-198c-5 7 -5 23 -5 84h-34v-86h-124v-29l216 -3c38 0 57 -7 57 -21c0 -5 -1 -11 -4 -18c31 38 50 47 92 47zM761 519h-168l-24 -30h118v-55
c30 26 38 38 38 55c12 0 14 2 36 30zM816 20c-7 27 -18 29 -93 36c0 10 0 15 3 55c0 30 -11 43 -61 101h-86v120c20 0 35 7 53 32h-196v121l17 4c-9 29 -24 31 -138 31c4 64 4 64 5 86c0 19 -2 33 -5 39h114v111h-32v-78l-45 -5c-1 0 -146 3 -153 4l-8 5v74h-29
c-1 -17 -3 -42 -6 -76h-104l-8 -12v-24h244v-125h-98l21 -30h188v-109l-4 -15c-53 -4 -54 -4 -80 -4l17 -28l117 2c24 0 46 -1 94 -7v-111l-4 -5h-208l-33 -36l90 2l16 -26v-43c22 23 34 45 36 67h155c51 0 82 -2 94 -6v-116h-133l27 -34h233zM935 -132v30h-72v61l-30 40
v-90l-7 -12h-240c-4 6 -7 20 -9 41l-1 14h-31c0 -13 -1 -25 -3 -52c-7 -8 -11 -13 -11 -15c1 -3 1 -7 2 -17c84 0 137 -2 160 -7v-17h25c6 3 10 11 12 24h205zM355 54h-157l-25 -32h118c0 -8 3 -22 6 -44zM396 -132v29h-70c-3 5 -4 10 -8 58h-24c0 -11 -2 -29 -5 -52h-237
v53c-8 -50 -8 -53 -8 -86h103c14 0 16 -3 16 -22h28c0 11 1 16 4 20h201z" />
    <glyph glyph-name="Y" unicode="Y" horiz-adv-x="962" 
d="M933 609c-17 -1 -43 -3 -77 -7c-52 -88 -135 -218 -248 -391v-210h98c5 -77 6 -99 6 -196h-466c-8 88 -8 114 -8 189c13 3 37 4 73 4c15 0 23 7 23 22c0 110 -2 162 -10 206c-2 12 -210 302 -258 365l-24 6h-39v193l446 6v-195c-55 0 -63 -2 -75 -7
c16 -31 37 -61 111 -161h7c73 109 84 124 101 163c-25 5 -34 5 -79 5c-4 54 -5 77 -5 195l424 5v-192zM892 654v35h-245v67c-8 0 -17 -2 -31 -4c-1 -10 -1 -12 5 -51c0 -10 -8 -16 -25 -17h-36v-32h202v-109c7 7 15 19 26 34c0 39 2 65 7 77h97zM756 531h-147l-19 -31
c18 0 21 -1 28 -6v-118h-74c-25 0 -44 -9 -56 -26c-20 19 -35 29 -44 29c-38 -4 -47 -5 -76 -5v120l16 8l-20 28h-138c-3 65 -4 99 -5 107c0 5 2 10 7 15h175v34h-35v68h-28c-1 -15 -3 -38 -7 -68h-245c-8 11 -9 33 -9 66h-26v-59l-8 -11l1 -32h147v-121h-28
c17 -25 42 -38 75 -39c2 0 47 3 99 7v-123h-61c3 -7 9 -17 17 -30h176l9 -7v-114h-103v-35h184v35h-53v76c0 13 1 28 4 45l101 -2l22 3l18 23c-3 36 -5 63 -5 81c0 25 3 42 9 52c78 -6 89 -4 99 30zM667 -108c-1 3 -1 8 -2 21h-157v114c15 8 32 9 57 9v30h-185v-32h100v-123
h-194v-35h56v-28h28c0 20 1 23 5 29h247v-26h32c0 1 0 2 -2 19c0 3 2 7 7 11c5 3 8 7 8 11z" />
    <glyph glyph-name="Z" unicode="Z" horiz-adv-x="809" 
d="M736 -198h-736v195l417 588l-7 8h-177l-40 -156h-179l19 363h722v-154c0 -5 -1 -28 -4 -68c-59 -84 -198 -277 -417 -578l7 -5h185c7 14 16 45 26 92c10 44 19 71 27 81h180c0 -159 -4 -299 -23 -366zM713 668v31h-155v57h-32v-59h-248c-8 17 -9 23 -9 59h-30v-59h-172
v-35h27v-123h-37v-26h115v27h-47v115l7 8h243l5 -26h33v26h253v-121h-223l-25 -32l51 2c3 0 23 -2 62 -7v-114l-7 -9h-197l-21 -28c62 0 63 0 73 -5v-115c-30 0 -35 0 -108 6c-19 0 -44 -15 -74 -44c11 1 11 1 44 -5v-118h-134l-23 -30c9 -36 14 -57 15 -62
c0 -23 -2 -44 -6 -64h-47v-30h190c7 -8 10 -16 10 -24c0 -4 -1 -9 -3 -13h32l5 35h253v-35h27v23c0 5 3 11 8 16h132c0 2 6 116 10 184h-114l-8 -30h84v-100c0 -3 -2 -8 -6 -22h-251v31h-31c0 -19 -1 -26 -8 -35h-240l-5 4v114l5 8h175l21 30h-52l-7 5v113l7 6h134l34 37
h-34v118c125 0 141 1 141 50v79c0 29 11 29 46 29c73 0 101 45 101 156z" />
    <glyph glyph-name="a" unicode="a" horiz-adv-x="1008" 
d="M981 -195h-475v194l71 1c-4 26 -15 62 -33 107h-188c-10 -21 -21 -57 -32 -107c25 0 49 -2 73 -5l6 -173c-1 -4 -2 -8 -6 -20h-391c-5 76 -6 97 -6 189l74 6l45 130c143 448 222 675 234 675h281c143 -476 190 -625 251 -796l92 -6c2 -43 3 -108 4 -195zM695 463v16
c0 7 -8 10 -61 19v114l13 10c-3 5 -6 15 -9 28c-72 0 -121 2 -146 6v104h-26c2 -31 2 -43 2 -49c0 -27 -3 -44 -11 -57h-120c-9 -23 -13 -49 -13 -79v-75c-5 -3 -12 -5 -20 -5c-5 0 -10 1 -16 2c-3 -8 -7 -19 -13 -34h135c1 0 6 11 14 34h-76v65c1 35 4 55 7 58h251v-126
h-123l12 -31h200zM485 321c-7 32 -17 67 -32 104l-31 -104h63zM937 -151v13c-5 3 -13 5 -23 8v85h-28v-78l-5 -9h-247v87h-28v-80c-5 -5 -13 -7 -23 -7h-34v-19h388zM842 -9l-11 35h-57v119l17 4l-5 28l-152 5v115l7 9h103l-8 28h-202c0 -28 0 -32 54 -26h-1
c9 0 16 -2 21 -7v-98c-1 -2 -2 -9 -5 -23h-246l-7 8v111l18 9c3 7 6 15 7 27l-89 3h-53l-9 -28h93c5 -9 7 -22 7 -39c0 -37 -2 -66 -7 -89h-135c-4 -20 -6 -47 -6 -80v-55c0 -17 0 -17 -33 -17l-8 -1c-3 -7 -8 -19 -14 -34h153l10 32c-71 0 -72 0 -81 7v70c0 2 1 19 5 47
l446 1c39 0 69 -2 90 -5v-123h-123l12 -42l8 9h201zM360 -150v16c0 3 -4 6 -12 9v80h-28c2 -24 3 -35 3 -44c0 -22 -2 -33 -8 -41h-246c-10 0 -12 24 -7 85h-14v-105h312z" />
    <glyph glyph-name="b" unicode="b" horiz-adv-x="883" 
d="M837 95c0 -189 -128 -291 -335 -291h-490v194l97 1c5 22 7 34 7 37c-6 437 -9 557 -16 562h-100v194c185 6 290 7 316 8h246c138 0 245 -111 245 -253c0 -88 -34 -156 -102 -204v-7c81 -52 132 -145 132 -241zM746 626c-3 23 -18 35 -43 35h-62c0 11 1 28 3 57
c0 25 -4 29 -30 29v-72c0 -15 -1 -15 -29 -18c-121 0 -196 2 -225 6v91h-32c0 -59 -2 -91 -5 -96h-196v92h-25v-88c-6 -7 -7 -7 -55 -7l-4 -8c84 -3 108 -8 109 -21l15 1c12 0 17 -2 20 -7v-121h-33v-31c116 0 175 -1 176 -4v36h-107v124h103l9 20l78 2c1 0 60 -12 93 -20
h240zM514 512c0 71 -40 83 -134 83v-170h60c43 0 74 37 74 87zM333 410v52h-4v-52h4zM784 39h-136v121h134l-20 53l-2 -19c-36 -4 -73 -7 -111 -7c-24 0 -48 1 -73 3c2 -10 5 -21 10 -32c3 3 6 4 9 4c5 0 11 -2 18 -7v-101c0 -4 -1 -9 -3 -16c-8 3 -13 4 -16 4
c-8 0 -12 -3 -41 -39l198 3c9 0 13 -4 13 -15c0 -5 0 -10 -2 -15c9 15 16 36 22 63zM758 501h-193l-6 -33h55v-122h-249l-5 28c-17 0 -21 1 -27 6l1 -13c0 -11 -3 -19 -9 -23h-169v-32h33v-117l-17 -7l-12 2v-32h163l9 -5v-110l-7 -9h-163v-34h25v-120h-130v-31h478
c41 0 84 10 131 31h-160v91l-31 -6c0 -76 0 -76 -6 -86h-246v97c0 2 2 10 6 25h107v189h-108l-6 5v117h249c2 -49 7 -60 35 -60c0 56 0 56 6 62h146l-39 25c21 27 31 52 31 76c-4 22 -5 37 -5 38c0 16 25 19 105 19zM540 113c0 84 -33 103 -153 97v-198h51
c68 0 102 34 102 101z" />
    <glyph glyph-name="c" unicode="c" horiz-adv-x="783" 
d="M748 127c0 -190 -150 -325 -360 -325c-154 0 -388 78 -388 474c0 188 52 526 351 526c55 0 109 -14 164 -42c11 6 15 7 18 9h200v-347h-226c-5 12 -10 37 -15 76c-8 80 -30 109 -88 109c-81 0 -121 -86 -121 -258v-157c0 -104 53 -188 117 -188c72 0 97 63 97 217h251
v-94zM688 475l-113 6v71c0 4 2 19 5 46h105v108c0 -17 -2 -43 -7 -78h-191c20 -30 20 -30 42 -30c5 -2 10 -4 17 -6v-124h140zM445 744c-32 12 -64 18 -95 18c-30 0 -61 -6 -94 -17h148l9 -9v-84h26c0 50 2 81 6 92zM324 625h-143c-10 0 -10 2 -10 61
c-15 -7 -17 -11 -31 -57c-13 -5 -21 -8 -23 -11c-1 0 -6 -7 -16 -20c146 0 151 0 180 -7v-13zM250 447c-3 3 -4 6 -4 9c0 1 0 2 4 19h-188l-6 -28h81c6 -6 9 -9 9 -10v-71c0 -12 -3 -25 -9 -38h-93v-30h191v28c-41 0 -54 1 -64 5v108c0 3 2 5 5 8h74zM704 178h-125
c-4 -1 -17 -3 -27 -4c-5 0 -10 2 -13 4v-26h142c4 -35 4 -54 5 -59c0 -15 -2 -34 -6 -59h-166l-22 -32h57c0 -51 0 -66 -4 -116h-237v110c-23 25 -37 38 -42 38c-29 -4 -37 -5 -61 -5c-7 0 -17 2 -32 7l-2 81c1 3 2 14 5 35h64v26h-187v-29h89v-117h-55c5 -12 9 -22 14 -30
h174l8 -7v-104c-9 -8 -30 -9 -61 -9c15 -14 38 -23 71 -26h78c5 0 34 -6 62 -11c31 0 80 17 145 51l-1 96c0 8 15 13 46 14h49c21 38 32 98 32 172z" />
    <glyph glyph-name="d" unicode="d" horiz-adv-x="896" 
d="M866 304c0 -378 -153 -502 -608 -502h-249v195c111 3 111 3 111 42l-9 556c-31 5 -43 5 -103 5c-6 52 -7 81 -8 88v104c65 3 225 6 480 8c250 0 386 -174 386 -496zM804 471l-8 32h-100v126h46l-29 32c-65 -3 -89 -3 -94 -3c-30 0 -52 2 -71 8v84h-31v-88h-247
c-5 19 -7 51 -8 94h-28v-94h-184l-3 -9l4 -9h76c0 1 -7 1 -22 1c33 -1 51 -6 55 -16h172c0 1 46 17 61 17c182 -15 195 -16 238 -16c18 0 30 -2 36 -8v-112c-5 -5 -13 -7 -24 -7l-42 -1v-31h203zM815 319v49c0 7 -3 36 -8 86v-56c-1 -29 -3 -46 -8 -51h-186v-28
c23 0 41 -3 54 -9v-109c0 -7 -10 -11 -30 -11c-9 0 -19 1 -32 2v-29c105 0 172 -1 201 -4v32c-58 0 -96 2 -115 5c0 109 1 114 9 123h115zM564 323c0 225 -37 272 -173 272v-581h47c84 0 126 103 126 309zM337 319v28h-72v115c8 7 32 11 71 11v29h-172v-29c60 0 61 -1 71 -7
v-109c-10 -10 -14 -11 -35 -12c-4 0 -8 0 -36 2v-28h173zM765 40h-197c-8 0 -26 -21 -36 -33c46 2 55 3 69 3c33 0 50 -3 65 -9v-82c13 5 21 14 23 26v35c0 25 3 27 58 27c4 7 10 18 18 33zM344 5v33c-49 0 -76 1 -79 4l-2 60c0 15 2 35 7 59h70v31h-174v-32h69v-109
c0 -10 -23 -15 -69 -15v-31h178zM609 -118h-198c-4 11 -5 21 -5 81h-30c0 -71 0 -72 -5 -82c-72 -2 -113 -2 -123 -3c-10 0 -52 2 -125 6v72h-31v-66c-6 -6 -11 -9 -16 -9c6 0 6 0 9 1h-28v-29h413c54 0 100 10 139 29z" />
    <glyph glyph-name="e" unicode="e" horiz-adv-x="818" 
d="M777 154l-13 -341c-234 0 -270 -1 -747 -11c-5 73 -7 115 -7 125l2 67c9 3 29 4 60 4c16 0 30 3 41 9v584c-13 4 -13 4 -85 4c-2 0 -11 1 -26 4v189l643 12h102l21 -330h-199c-14 105 -21 134 -35 134c-74 0 -89 0 -147 -4c-3 -9 -5 -21 -5 -36l2 -141l9 -7h190l6 -217h2
c-121 5 -187 2 -201 -10v-184h147c21 0 34 47 40 141c24 6 37 7 40 8h160zM725 4v31h-98v76c-11 -15 -13 -22 -30 -107h128zM720 -147v26h-235v81h-29l1 -46c0 -15 -2 -27 -7 -35c-16 0 -52 -1 -143 -5c-8 0 -41 2 -100 7v112l5 9h133v184h-138v119l7 7h235
c8 -21 9 -29 9 -69h28v60c6 6 16 9 54 9v28h-185c-9 0 -13 15 -13 44v112h-130l-5 6v111c45 5 83 8 132 8l10 21l235 2l8 -21h122v31l-87 1v103h-28v-105h-247c-5 9 -7 21 -7 35l-1 64h-27v-99h-255v92h-15v-103h91l17 -21h20c4 -47 6 -73 6 -78c0 -31 -7 -47 -24 -47v-31
h151l8 -5v-120h-158v-27l19 -8l2 -96c0 -25 -1 -25 -19 -25v-31h154v-122h-150v-29c11 0 17 -20 17 -60c0 -33 -2 -56 -7 -67h-117v-22c35 -3 73 -4 112 -4c33 1 550 4 551 4z" />
    <glyph glyph-name="f" unicode="f" horiz-adv-x="790" 
d="M766 476h-196c-25 99 -30 115 -40 129h-144l-7 -9v-172c17 -4 37 -7 60 -8c25 0 52 1 122 3l8 -9v-206h-182c-5 -32 -8 -57 -8 -76v-122l7 -7h91v-196h-476v197h100l5 8v589c-15 9 -19 10 -104 10v194h738zM708 624l-17 132c0 -44 -2 -78 -6 -102h-246l-7 5v103h-28
c-1 -23 -3 -58 -7 -104h-235c-3 1 -6 2 -16 7v97h-32c0 -90 0 -91 -7 -103h-65v-12h103l5 -25l56 1c36 0 44 -1 54 -7l2 -107l-7 -11h-105v-34h184v32h-24c-8 0 -14 2 -18 5c0 29 2 70 7 121h35l-1 4c0 20 0 20 142 26c73 0 102 -10 102 -36c4 0 123 7 131 8zM525 338l-93 6
v31h-29v-9c0 -11 -2 -19 -6 -24h-247v-31c36 0 73 -3 110 -8v-75c0 -11 -2 -26 -7 -43h-102v-34c112 3 132 4 185 4v28l-44 6v113l5 6h227zM433 -152h1l-1 22c-121 0 -122 0 -143 6v92c0 24 7 28 46 28v34h-184v-37h108v-114l-7 -9h-209v-8c1 -3 2 -6 6 -14h383z" />
    <glyph glyph-name="g" unicode="g" horiz-adv-x="796" 
d="M746 -182l-147 2c-6 24 -17 36 -34 36c-131 -48 -149 -54 -199 -54c-224 0 -366 189 -366 479c0 312 145 520 366 520c47 0 95 -14 142 -41l9 9h197v-320h-198c-15 118 -37 155 -104 155c-88 0 -132 -108 -132 -325c0 -159 20 -283 107 -283c69 0 95 54 95 184h-87v193
h345l6 -5v-550zM673 491v145h-111l-7 5v88c-4 -2 -7 -8 -10 -18c-3 -9 -7 -15 -14 -16c-2 -50 -2 -52 -7 -58h-66c59 -32 59 -32 77 -32h123v-114h15zM404 754v3h-89v-3h89zM376 637h-90v112c-6 -1 -16 -3 -27 -7v-104h-127c-4 -7 -9 -18 -15 -32c7 -3 11 -14 11 -33v-36
c0 -17 -2 -34 -7 -50h-21c-27 0 -41 -6 -41 -17c1 -2 1 -6 2 -14h189l5 29l-102 5v109l6 8h164c9 8 27 18 53 30zM703 309v15l-6 8l-238 4c-13 0 -20 -7 -20 -20c1 -2 1 -2 2 -7h209l8 -7v-91c-1 -3 -2 -8 -5 -21h-127v-142c-14 0 -14 0 -26 -36h156v-120c-3 2 -8 3 -17 3
c-1 0 -15 -1 -40 -4c5 -20 17 -30 37 -30h66v34l-11 2v115h12v32h-148v116h148v26l-14 4v119h14zM242 191h-89v92c0 4 3 13 8 28h78v28h-190v-30h72c5 -14 7 -25 7 -32c0 -24 -2 -53 -7 -87h-68v-27h189v28zM538 -104h-117v58h-28v-28c0 -16 -3 -25 -8 -31h-189
c36 -25 66 -40 89 -43l6 11h197c10 8 27 18 50 33zM280 12c-5 10 -12 23 -20 43l-6 -11h-168c5 -20 18 -32 40 -37c0 -39 5 -55 26 -76c1 19 3 46 8 81h120z" />
    <glyph glyph-name="h" unicode="h" horiz-adv-x="975" 
d="M923 -198h-427c-5 23 -6 36 -6 39v156h58l15 10v198c-24 3 -37 4 -40 5h-174l-9 -5v-200c11 -6 12 -6 84 -6v-195h-423v195c13 -1 24 -2 34 -2c23 0 39 4 46 12v589c-37 5 -64 8 -81 8v191h427v-192h-78l-7 -9v-167c18 -4 37 -6 56 -6h165l5 7v167c-11 3 -31 5 -59 5
c-3 1 -7 2 -18 6v189l221 4h207v-195c-55 0 -71 0 -83 -14l4 -585c9 -8 9 -8 83 -8v-197zM382 648v9h-31v101h-31v-105h-201c-2 0 -20 2 -53 6v98h-26l4 -5c-2 -5 -3 -40 -4 -106c12 2 21 3 28 3c5 0 23 -1 54 -3c-3 -6 -4 -11 -4 -14c0 -11 4 -12 60 -18c2 -8 3 -22 3 -43
c0 -27 -2 -53 -6 -76h-50v-31h171v33h-83v119c10 5 11 5 83 5v13c0 6 2 11 6 14h80zM880 -154v27h-95v105c7 9 11 18 11 25v29h-158v113l8 9h148v23l-9 12v110l7 13v27h-154v116l8 8h146c-5 19 -7 29 -7 31v122c4 3 4 5 13 32l76 5c-83 -4 -119 -5 -139 -5
c-39 0 -72 4 -97 11c1 10 4 88 4 91l-4 8h-26v-107h-72c3 -1 3 -2 72 -9l-1 -21c93 3 130 1 147 -7v-93c0 -2 -2 -11 -7 -26h-137c2 -26 3 -49 3 -69c0 -44 -5 -73 -14 -86h-248l-6 43h-30v-42h-193v-30h19c27 0 36 -10 36 -42c0 -31 -3 -60 -8 -85h-47v-30h164v30
c-69 0 -70 0 -79 5v95c0 27 0 28 146 28c48 0 83 -3 111 -8v-51h32v55h253l5 -4v-77c0 -3 -2 -17 -7 -43h-139v-188c124 0 125 0 146 -6v-46c0 -18 -2 -42 -7 -72h-213l-2 -16l4 -10h340zM376 -152v25h-165v114l5 9h74v36h-164l-1 -36c44 0 46 0 53 -5c0 -14 1 -42 3 -62
c0 -15 -3 -34 -8 -59h-133c0 -10 0 -10 6 -22h330z" />
    <glyph glyph-name="i" unicode="i" horiz-adv-x="496" 
d="M445 -196h-438v194h88c5 7 7 22 7 44c0 369 -4 556 -13 561h-88v191c13 3 18 4 21 5h418v-189h-44c-29 0 -44 -11 -44 -33c0 -87 5 -486 7 -575h86v-198zM397 -152v24h-204v75c0 1 1 18 5 50h115v186h-120v124h117v188h-110l-7 5l-2 83c0 3 2 16 7 39h112l-2 10
c0 15 0 15 87 23h-55c-5 7 -7 26 -7 55l-1 48h-26c0 -90 0 -91 -7 -104l-206 -2c-3 1 -17 2 -43 5v92l-1 -100c52 4 52 4 56 4c30 0 37 -10 37 -31l19 -3l2 -99c0 -25 -3 -25 -21 -25v-32h158v-125h-158v-19c19 -17 20 -29 21 -81c0 -38 -6 -57 -17 -57v-27h149l9 -7v-116
h-158v-34l17 -8v-110l-6 -7h-106v-19l6 -5h340z" />
    <glyph glyph-name="j" unicode="j" horiz-adv-x="798" 
d="M750 610h-87c-11 -27 -16 -68 -16 -123c0 -7 7 -170 15 -330c0 -246 -77 -355 -253 -355c-48 0 -73 8 -185 45l-7 -26h-216v400l7 6h216v-69c0 -90 31 -135 94 -135c56 0 84 30 84 89v492h-88l-6 75c0 10 2 50 6 121h436v-190zM704 653v104h-20v-92l-7 -7h-176v99h-27
v-53c-1 -27 -4 -43 -9 -47h-112l2 -8h84l9 -16l-2 -8h140l9 -5v-116h-149v-31l13 2c2 -1 5 -2 13 -5v-113c-3 -5 -4 -5 -26 -5v-32h148v-117h-148v-33l23 -5v-116c-31 0 -43 -4 -53 -31h177c7 -7 8 -11 8 -32c7 23 10 45 10 66h-105v118h106v183h-106v122h107v170l7 8h84z
M541 -104h-67c-13 0 -29 -1 -56 -3c-18 0 -36 2 -54 5c0 14 2 46 3 69c0 5 -1 10 -3 15c-6 -2 -15 -5 -27 -8v-83h-93c23 -20 58 -30 104 -30c9 1 87 4 88 4c21 0 32 -3 35 -9c25 3 48 17 70 40zM180 166v14h-133v-14h133zM212 14c-4 7 -10 18 -17 33h-152v-28
c0 -3 1 -6 4 -9l13 -1l-2 -108c-15 -11 -15 -12 -15 -19v-17c2 1 6 2 11 2l21 -2h107l6 6v22h-52c-17 0 -34 2 -51 5v43c0 17 3 42 8 73h119z" />
    <glyph glyph-name="k" unicode="k" horiz-adv-x="981" 
d="M945 -197h-453c-5 24 -5 37 -6 40v156h46l1 7l-115 177l-61 -60v-115c5 -4 9 -5 69 -15v-190h-426v196c83 0 84 0 93 6v589c-13 6 -27 9 -44 9h-47v187l12 8h412v-195c-11 1 -21 2 -30 2c-20 0 -33 -4 -39 -11l3 -181c59 44 123 106 190 185c-9 4 -21 5 -62 5
c-4 55 -4 86 -5 93v100l446 6v-197h-76l-225 -229c54 -84 135 -209 241 -377h76v-196zM884 749v11h-354v-9c15 0 22 -1 29 -6v-98h33v101h247c2 -7 3 -18 8 -101h28v97c3 2 6 4 9 5zM806 627h-158c-3 0 -15 -11 -37 -34c49 0 81 -2 96 -5v-67c20 17 30 33 30 48
c0 5 -1 10 -2 15c7 6 18 10 33 13c13 1 25 11 38 30zM740 -151v123h91l-21 35h-216v122h138l-24 35l-3 -7h-213c4 -24 7 -24 72 -36v-79c10 -15 25 -39 44 -71h91l9 -7v-91c0 -4 -3 -12 -9 -23l-166 -1h207zM656 469h-170l-29 -33c55 0 90 -2 103 -6c3 -35 4 -54 4 -58
c0 -15 -3 -35 -8 -60c-205 0 -231 0 -238 -7c-5 9 -9 49 -14 121l11 14v30h-150v115l5 8h142v22c-8 97 -8 108 -8 124l7 12h70v9h-309c-2 0 -10 -2 -24 -7c169 -4 173 -4 216 -4l9 3v-123h-130l-8 -6v-188h138v-123h-138v-184h131l9 -7v-114h-138v-145l-14 -14l242 -4
c2 1 6 2 16 5h-214v122h150v35l-10 15v100c3 10 10 22 21 37h-156l-6 6v115h255c0 -22 0 -23 28 -58c-2 53 6 70 81 70c56 -5 92 -7 102 -7c-13 19 -26 31 -40 34c2 22 -1 36 -17 60c8 6 12 15 13 28s4 22 7 27c32 0 41 5 61 36zM87 -153v3h-43v-3h43z" />
    <glyph glyph-name="l" unicode="l" horiz-adv-x="776" 
d="M760 205l-34 -403h-725v197h83l9 15l-5 583c-11 5 -11 5 -82 5v197h437v-196h-82v-593c17 -7 26 -8 28 -9l115 2c13 29 28 100 45 215h205zM709 133v29h-84c-3 8 -9 12 -18 12c-22 0 -23 -2 -33 -41h135zM693 7h-142v-32l14 1c12 0 17 -1 24 -6v-112
c-15 -5 -28 -7 -37 -7h-216v106c-21 0 -21 0 -21 50h-75v121h71v188h-77v119l76 6v190h-74v118l5 8h-32v-121c-9 -7 -13 -8 -72 -8v-28c66 0 118 -2 157 -7v-121h-155v-32h63l5 -109l-12 -16h-56v-28c11 -3 26 -4 42 -4c10 0 29 1 77 4c13 0 26 -2 38 -6v-121h-157v-33l34 2
c1 0 13 -2 36 -6v-109c-5 -7 -6 -7 -69 -7v-36h160v-115l-3 -6h385c-13 1 -33 3 -59 7v94c-1 2 2 10 6 24l64 2v30zM120 -150c-2 1 -5 3 -8 6v100h-32v-105l-29 -1h69z" />
    <glyph glyph-name="m" unicode="m" horiz-adv-x="1239" 
d="M1188 -196h-412l-6 69v122c56 7 57 7 63 13v237c0 15 -2 33 -5 52c-96 -363 -109 -411 -155 -495h-217c-14 15 -42 122 -135 495c-6 -5 -9 -14 -9 -27l1 -266l61 -7l3 -95c0 -8 -2 -41 -5 -98h-368v189c9 6 10 6 76 6l6 7v595h-85v195h488l110 -444c11 6 40 103 141 446
h441v-193h-69l-6 -19l4 -583l74 -6l4 -71v-122zM1136 648v114h-12v-114h12zM1144 -138h-106v117l26 5v33h-163v120h163v34h-26v117l26 6v30c-67 -3 -92 -3 -97 -3c-26 0 -52 2 -70 6l-1 44c0 28 0 44 5 74h163v36h-29v122h29v34h-172v121h-29v-124h-128
c-10 -21 -15 -45 -16 -71v3c1 -6 1 -32 2 -78c0 -6 -6 -9 -19 -9l-7 -1l-17 -33h143l8 34h-74v125h114l8 23v-22h125v-127h-125v-187h127v-124h-127v-185h128v-122h-185v-14h318c5 3 7 7 7 11c0 2 0 3 -1 5zM529 443v22l-10 8h-49v122c8 4 16 6 23 6c-5 13 -8 23 -8 31h-164
c3 4 4 11 4 21c-4 41 -5 59 -5 68c0 5 3 17 8 35h-37v-123l-12 -6c2 -5 5 -14 8 -28h148v-126h-114v-10c1 0 3 -6 8 -20h200zM271 597v31h-138v-28c0 -6 2 -7 20 -10v-115c-3 -3 -5 -4 -20 -4v-33h56c6 0 33 2 82 6v28h-90v118c11 7 16 7 48 9c5 0 16 0 42 -2zM783 322h-131
c-7 0 -9 -4 -22 -32h59c0 1 -4 1 -11 1c17 -1 32 -4 45 -10v-110l-5 -7l-237 -2l-10 7v110l7 9h89c-1 7 -4 16 -8 29h-196v-19c0 -9 8 -13 23 -13c9 0 17 1 34 3c7 0 14 -2 22 -7v-119h-41c2 -7 4 -17 7 -30h170l6 -5v-92c0 -19 -19 -29 -57 -29c-9 0 -14 0 -87 6l36 -127
l1 92c211 0 214 0 216 15l-1 23h-77v114c18 7 19 7 115 7c17 33 19 55 29 152c15 0 19 7 24 34zM268 286v29h-139v-30h24v-123h-20l-6 -32h140v33h-81v114c0 3 2 6 5 9h77zM651 -142h-171c2 -9 5 -12 12 -12l157 2zM330 -147h-137l-5 5v110c0 3 2 6 5 9h74v33h-140v-37h30
v-121l-111 -3l280 -3z" />
    <glyph glyph-name="n" unicode="n" horiz-adv-x="945" 
d="M891 605h-75l-6 -9v-792h-304l-223 526l-5 -6v-318c11 -7 12 -7 85 -7c5 -77 6 -99 6 -197h-363v193c11 3 19 4 55 4l22 12v579c-7 7 -21 11 -44 11c-9 0 -20 -1 -33 -2l-6 171c-1 2 2 10 6 24h378c155 -378 165 -403 211 -488l3 33v257c-13 6 -41 9 -85 9l-5 193
c1 0 24 0 171 4h159c25 -3 34 -4 37 -4c6 0 12 1 16 3v-196zM822 643v119h-25v-119h25zM766 446v31h-81v104c0 5 1 11 4 18h76v30c-6 3 -11 4 -16 4c-1 0 -1 0 -15 -4h-88v-31c6 -1 9 -7 9 -17v-104c-6 -3 -9 -6 -9 -10v-21h120zM767 289v31h-119c0 -1 0 -7 -2 -17
c0 -9 3 -16 9 -20v-114c-6 -5 -9 -10 -9 -15c2 -9 2 -9 2 -19h119v32h-79v122h79zM486 446c-1 19 -17 29 -49 29h-40v117c4 4 12 6 23 6c-11 28 -17 33 -25 33h-141v116l3 7h-38v-127h-92v-33h242v-123h-96c4 -6 9 -16 15 -31h97c8 0 42 2 101 6zM553 288l-41 91
c2 -12 3 -22 3 -29c0 -24 -19 -36 -58 -36c-15 0 -25 1 -63 5c-7 0 -26 -1 -57 -4c2 -7 6 -16 12 -28c5 0 12 -2 21 -5c0 -42 1 -46 27 -107l8 113h148zM767 -150v9h-78v121h77v34h-219l-7 5v72c0 10 2 25 7 44h70c-3 7 -7 17 -13 30h-201v-18c7 -11 19 -16 36 -16
c1 0 43 3 47 4c8 0 15 -2 21 -5v-118h-41l12 -32h172l7 -5v-118l-127 -7h237zM233 287v185h-104v-35h90v-122h-92v-28h106zM235 -24v187h-107v-34h94v-117h-93v-36h106zM327 -145h-214v100h-31c0 -63 -1 -88 -4 -100c-9 0 -19 -2 -30 -5l273 -3z" />
    <glyph glyph-name="o" unicode="o" horiz-adv-x="809" 
d="M784 305c0 -322 -141 -503 -392 -503c-241 0 -392 193 -392 491c0 320 147 509 397 509c243 0 387 -184 387 -497zM552 724c-25 21 -56 31 -94 31c-3 0 -3 0 -67 -4c-17 0 -31 3 -40 10c-7 0 -73 -13 -107 -35l187 -3c9 0 14 -7 15 -21v4c-3 -56 1 -74 20 -84
c3 43 5 77 8 102h78zM303 609c-69 0 -70 0 -81 5v98c-19 -7 -29 -18 -29 -33c0 -8 1 -22 3 -42v-25h-61c-22 0 -34 -10 -37 -31h183c4 7 11 16 22 28zM743 288v29h-30v109l21 5l-5 29h-146v117h105l-17 32h-190c13 -23 18 -25 66 -35c3 -37 4 -58 4 -62
c0 -33 -5 -51 -16 -53v-28c69 0 118 -2 146 -5v-111h-139v-18c5 -68 7 -103 7 -123l-11 -5v-28c73 0 121 -3 145 -9c0 -75 0 -77 -7 -108h-173l-31 -31c47 0 72 -1 75 -4l2 -42c0 -26 0 -39 -5 -70h-69c-10 0 -51 2 -123 7v56c0 38 -7 49 -30 49v-107h-92
c23 -24 96 -36 219 -36c35 0 102 28 130 45c0 89 0 90 7 102h85c38 75 46 97 46 125c0 6 -1 12 -2 18l12 12v23h-146v110l7 7h155zM494 200v187c0 80 -16 217 -105 217c-55 0 -100 -93 -100 -208v-160c0 -147 36 -220 109 -220c60 0 96 69 96 184zM314 -4
c-19 29 -22 30 -73 31c-3 0 -8 1 -20 4v105c5 7 6 7 30 7v29h-162v117h151v29l-8 -1l-11 6v101l19 12l7 -1v30c-99 0 -152 2 -158 5v89c-25 -62 -33 -89 -37 -124c116 0 117 0 144 -9v-101l-5 -7h-148v-16c0 -7 5 -11 15 -13v-145h105c22 0 33 -4 33 -12v-80
c0 -3 -3 -11 -8 -22h-90c5 -13 10 -25 17 -34h199z" />
    <glyph glyph-name="p" unicode="p" horiz-adv-x="847" 
d="M823 489c0 -223 -117 -300 -455 -300v-183c24 -5 33 -5 78 -5v-199h-446v203c43 -4 101 0 101 20l-6 582h-95v193h515c195 0 308 -114 308 -311zM773 449v30c-52 0 -86 2 -103 6v111c11 9 19 9 45 11c5 0 16 0 42 -2l-12 32h-209c-9 14 -13 21 -13 121h-26v-111
c0 -7 -8 -10 -23 -11c72 -31 73 -31 125 -31c16 0 30 -2 43 -6v-111c-5 -7 -6 -7 -71 -7c0 -2 -2 -13 -5 -32h207zM520 497c0 67 -26 100 -79 100h-71v-194c0 -9 13 -13 39 -13c74 0 111 36 111 107zM319 605v31c-63 2 -63 2 -80 6v113l8 7h-36v-116c-10 -9 -14 -10 -65 -10
v-31h173zM719 323h-186c-7 6 -10 11 -10 19c2 17 2 22 2 38c-19 -9 -20 -11 -33 -54h-246l-7 5v110l7 8h72v32h-172v-32c53 0 54 0 65 -5v-108c0 -10 -3 -10 -48 -10l-17 -1v-30h209v-64h30c0 58 0 58 7 64h240c6 -5 10 -15 13 -32c7 2 18 12 32 30l19 3c7 5 14 14 23 27z
M322 -18v35h-79v121h79v30h-176v-30c23 0 44 -2 65 -6c0 -13 0 -15 -4 -105c0 -3 1 -7 4 -11h-65v-34h176zM398 -143c-6 1 -10 3 -13 5v95h-32v-98h-256v102h-27v-92c0 -9 -1 -9 -23 -15l7 -4h342z" />
    <glyph glyph-name="q" unicode="q" horiz-adv-x="713" 
d="M673 383c0 -206 -69 -370 -175 -419l39 -84l-163 -78c-12 22 -34 66 -67 133c-229 40 -307 148 -307 423c0 388 225 444 346 444c204 0 327 -157 327 -419zM635 366v58c0 19 -4 51 -11 94h-98v95c12 5 16 6 64 6c-5 13 -10 22 -14 28h-171v90c0 10 2 10 46 10l11 1
c-35 12 -73 18 -112 18c-33 0 -70 -6 -113 -19h139c4 -6 6 -14 7 -37c0 -8 -1 -20 -3 -45c0 -31 32 -46 97 -46c7 0 15 -2 23 -7v-88c-3 -4 -12 -6 -39 -6v-28h149l5 -4v-96h-147v-24h32v-98c-5 -4 -18 -6 -39 -6v-26c34 0 75 1 145 3c7 0 10 -4 12 -20l6 43
c-59 0 -92 2 -98 5v78c0 4 2 8 6 21h103zM617 210v9h-2v-9h2zM428 464c0 80 -43 162 -90 162c-60 0 -98 -100 -98 -257c0 -176 31 -264 93 -264c47 0 76 52 89 156c3 24 5 75 6 203zM595 138h-162l-17 -29c29 0 57 -2 84 -6v-93c24 12 25 19 26 70c0 20 5 30 15 30
c12 -2 20 -3 24 -3c13 0 23 10 30 31zM282 645l-62 -1c-2 0 -5 1 -13 4v85c-13 -5 -20 -14 -22 -26v-36c0 -10 -2 -19 -5 -27h-71c-23 -30 -30 -55 -35 -125l-5 1c-13 0 -14 -6 -19 -31h132v-100h-144v-23h21c9 0 16 -2 19 -6v-92l-16 -6h-18v-16c2 -3 2 -3 5 -10h133v-98
h-113c9 -23 20 -42 33 -58c0 14 2 25 7 31c15 0 21 0 82 -5h58l-16 30l-15 -1c-2 0 -4 1 -11 4v122c-27 0 -61 1 -104 4v94l6 7h93c0 64 4 114 13 150h-105l-7 5v91l6 7h149zM495 6v-1l-198 1c-4 6 -6 20 -6 44c0 21 -9 34 -27 40v-47c0 -16 -2 -28 -5 -36h-80
c27 -18 68 -27 121 -27h74l8 -6v-83c0 -2 -2 -6 -5 -14c3 -5 7 -11 11 -21c13 0 14 1 59 24h-39c0 69 0 75 4 99c32 0 34 0 83 27z" />
    <glyph glyph-name="r" unicode="r" horiz-adv-x="927" 
d="M881 -190c-39 0 -40 0 -196 -8c-153 0 -190 70 -190 256c0 119 -10 151 -65 151c-5 -1 -26 -3 -63 -9v-189c19 -7 29 -8 64 -8l25 -12v-187h-448c-6 60 -6 81 -6 195c15 -2 29 -3 41 -3c27 0 45 5 52 15l-3 593h-91v189c36 8 39 8 49 8l534 -3c121 -1 231 -122 231 -254
c0 -97 -40 -173 -121 -228c55 -37 82 -88 82 -153c0 -4 0 -15 -4 -80c0 -57 30 -79 109 -80v-193zM762 477v14h-32c-9 0 -17 2 -24 6v123h46l-15 30h-177v104h-31v-104h-249v108h-29l-7 -111h-101v-30h172c-4 23 3 25 77 25c20 0 47 -5 80 -14s59 -13 77 -13h122v-116l-5 -7
h-101c-28 -63 -32 -75 -33 -87l-2 -47c2 -13 2 -18 2 -19l-225 -3c-2 1 -11 2 -28 5c0 18 -2 65 -3 96c0 19 1 21 20 22l18 1v31h-169v-32c49 0 83 -2 102 -7v-116h-102v-30c203 0 205 0 249 -6v-47h28c-3 9 -4 16 -4 23c0 23 23 35 68 35c14 0 16 0 76 -6c31 0 59 11 84 33
h-81v120h171zM513 507c0 75 -37 91 -150 91v-141v2c1 0 3 -12 6 -36h71c42 0 73 35 73 84zM830 -127h-124v121h41l-12 34h-175v113l8 9h162v32h-25c-5 74 -8 87 -27 89c-3 -7 -5 -15 -5 -26v-35c0 -12 -2 -21 -6 -28h-129l8 -186c67 0 110 -2 127 -7v-112
c-11 -7 -12 -7 -78 -7c33 -14 66 -21 99 -21c8 0 54 1 134 5c1 3 2 10 2 19zM317 150v32h-172v-32c54 0 88 -2 102 -6v-118h-106v-34h176v35h-20c-7 0 -13 1 -18 2v112c0 5 5 8 16 9h22zM405 -150v104h-11c0 -43 -3 -71 -8 -84h-249v84h-34c3 -6 4 -15 4 -27
c-2 -29 -4 -58 -4 -59h-50v-18h352z" />
    <glyph glyph-name="s" unicode="s" horiz-adv-x="727" 
d="M680 119c0 -185 -120 -317 -290 -317c-55 0 -109 14 -162 43l-12 -30h-211v350h220c5 -7 7 -26 8 -58c3 -75 27 -103 87 -103c46 0 82 31 82 71c0 43 -35 81 -104 113c-111 52 -176 85 -194 98c-69 53 -104 125 -104 216c0 178 126 299 312 299c49 0 62 -4 174 -45l7 14
h168v-317h-203c-11 110 -38 158 -96 158c-44 0 -82 -40 -82 -86c0 -39 35 -73 104 -104c107 -48 171 -80 192 -95c69 -51 104 -120 104 -207zM621 578v32h-163c7 -12 13 -22 19 -30h33c5 -2 6 -13 10 -87h27v85h74zM440 729c-32 23 -74 34 -126 34c-45 0 -91 -11 -140 -32
l208 -4v-35c0 -44 2 -47 30 -47v84h28zM267 610h-133v95c-14 -5 -22 -13 -24 -25c1 -17 1 -54 -4 -69h-44c-1 -7 -3 -17 -7 -29c168 0 177 0 190 -8c4 9 12 20 22 36zM636 133v19c0 2 -1 6 -4 15h-85v117h13c-9 20 -30 30 -65 30c-39 -3 -49 -3 -53 -3c-22 0 -33 7 -33 22
v30c0 7 -3 12 -10 13h-17c0 -37 -2 -53 -7 -64h-231c23 -17 50 -26 96 -35c-2 -3 -3 -6 -3 -9c0 -8 7 -10 31 -17c1 7 3 18 6 33h196c3 0 18 -2 46 -6c0 -83 0 -83 -7 -111h-96l22 -34h201zM274 435c-6 10 -17 24 -32 43c0 -5 -1 -10 -3 -15h-192v-11c0 -3 2 -10 6 -22h55
c0 -97 0 -99 27 -110v109c23 4 70 6 139 6zM621 16h-187c-3 0 -13 -11 -32 -32h113v-107c19 5 28 17 28 36c-2 17 -3 29 -3 39c0 11 1 21 3 32c73 0 78 0 78 32zM492 -135h-201c34 -14 68 -21 101 -21c45 0 79 7 100 21zM268 -58c0 28 -5 35 -32 46c-20 30 -20 30 -38 30
c-13 -2 -38 -4 -39 -4c-8 0 -16 1 -25 3v104h-27c0 -24 1 -44 3 -79c0 -24 -6 -27 -42 -27c-7 0 -14 -1 -21 -3v-28h186c4 -7 6 -14 7 -23c-1 -16 -3 -38 -3 -48c0 -19 10 -30 31 -35v64zM182 -135h-133v-7h131c0 3 1 6 2 7z" />
    <glyph glyph-name="t" unicode="t" horiz-adv-x="857" 
d="M825 446h-202c-3 11 -5 22 -25 138c-9 5 -18 8 -27 8c-3 0 -10 -4 -22 -13l6 -577c18 -5 48 -7 91 -7v-193h-449c-5 23 -6 36 -6 39v159l84 1v585c-15 5 -24 7 -26 7l-24 -1c-4 -32 -10 -80 -19 -144h-206c0 63 3 133 25 353h776zM780 491c0 15 -2 41 -11 167v20h-133
l-6 6v78h-31v-81h-256v84h-29l3 -50c0 -5 -3 -18 -8 -37h-245l-6 37l-7 -70h111c7 -35 10 -63 11 -82c0 22 1 41 4 56l23 23h252v-121h-132v-185c69 0 114 -2 137 -5c2 -56 2 -63 -6 -120h-129v-194h137v-123h-224v-31c74 0 74 0 85 -7l-3 -12h32l-1 5c0 4 2 9 7 14h242
l9 -6v39h-119v110l16 16l8 -2v34h-164v116l8 7h156v34l-20 1v122h18v32h-157c-7 11 -7 12 -7 115l7 8h157v28l-24 11c-2 43 -2 61 -2 65c0 21 3 38 9 51h248v-99c0 -2 -2 -10 -5 -24h-81l5 -30h121zM168 490v29h-123v-29h123z" />
    <glyph glyph-name="u" unicode="u" horiz-adv-x="930" 
d="M880 612c-15 2 -28 3 -39 3c-22 0 -37 -4 -45 -11l2 -566c0 -155 -164 -236 -347 -236c-259 0 -365 138 -365 473c0 7 6 265 8 323c-36 8 -52 9 -92 9v185l435 5v-188c-54 0 -66 -2 -77 -14l2 -469c0 -56 49 -102 108 -102c80 0 118 47 118 142l-7 438h-84v197h366
c3 -1 7 -2 17 -7v-182zM834 655v26h-204c-5 11 -8 37 -9 76h-33v-77h-48v-21l6 -12h182v-115h-103v-31h125v138c10 10 38 15 84 16zM755 196v184h-125v-31h96c3 -6 5 -13 5 -21v-97h-100v-35h124zM755 45v31h-123c-2 2 -5 5 -8 9c-5 -14 -10 -28 -17 -42h120
c5 -6 6 -8 9 -56zM693 -80h-204v59h-34v-61h-198v113c14 8 15 8 90 8c-16 27 -25 56 -28 87c1 0 1 31 1 97h-66v121h64l-6 182h-60l-6 104c1 3 2 7 7 17h140v22l-4 11l-31 -1c-18 0 -18 8 -18 78h-29c-1 -17 -3 -43 -6 -77h-177v74h-29v-69c-7 -4 -22 -6 -45 -6l-12 -5v-26
c64 0 85 0 177 -8l5 -100c0 -11 -13 -16 -42 -16h-44v-29h172v-121h-168v-32h84v-94c0 -2 -2 -10 -7 -25h-75v-33h168v-122h-165l6 -29h30c35 0 52 -14 52 -43c-4 -43 -5 -57 -5 -72c0 -26 17 -29 90 -42l-3 -10c0 -8 6 -9 35 -15l6 31h238l6 -22c23 3 34 11 34 22l16 1z
" />
    <glyph glyph-name="v" unicode="v" horiz-adv-x="941" 
d="M906 609c-58 0 -65 -1 -77 -4l-225 -801h-303c-105 397 -167 618 -219 786c-31 8 -50 9 -76 9l-6 189l435 6l6 -189c-10 -4 -11 -4 -71 -11c37 -147 75 -285 114 -413c41 90 60 163 120 417c-12 5 -13 5 -96 5v193c25 0 25 0 77 4h315zM858 679l-197 -1
c-23 0 -35 5 -35 16v33c0 9 -1 19 -3 30h-26v-42c-1 -22 -4 -34 -9 -37l-16 1c-21 0 -24 -3 -24 -10v2c1 0 3 -9 6 -27h187v-74c0 -5 -2 -20 -5 -47h-105c-33 -137 -38 -153 -51 -186c11 0 113 2 125 3c5 8 6 12 6 31h-79v122h118c15 48 22 90 22 126c0 11 -1 21 -3 28h89
v32zM396 334c-5 14 -8 25 -10 33h-35v77c-1 30 -3 55 -8 75h-140v111c0 7 12 11 36 11h157v37l-26 -2l-25 2v75h-26c-1 -17 -3 -44 -7 -77l-207 -6c-16 0 -30 1 -41 4v75l-18 -2v-106c65 0 108 -3 130 -8v-111c-3 -4 -9 -6 -28 -6c3 -13 6 -23 10 -29h154
c7 -17 11 -36 11 -58c0 -23 -2 -45 -6 -67h-125l14 -52v24h190zM670 218h-44c-3 0 -31 -2 -84 -6c-1 -7 -3 -18 -7 -31h64c3 -25 5 -54 5 -87c0 -17 -2 -29 -5 -37h-100c-5 -23 -8 -28 -16 -32l-11 28l-119 6v112l5 8h81c-1 5 -6 16 -14 33h-192c0 -36 0 -36 70 -36l20 -1
c4 -58 4 -91 5 -99c0 -19 -4 -19 -52 -25c3 -6 6 -15 9 -28c99 0 159 -2 180 -5l2 -85c0 -24 0 -29 -3 -34c-3 0 -129 -3 -145 -4c11 -47 12 -48 36 -48l-1 3c0 11 16 17 49 18l174 2l8 32h-92v115l7 8h117c10 21 15 46 16 77c0 -8 0 -12 -1 -14v93h32z" />
    <glyph glyph-name="w" unicode="w" horiz-adv-x="1292" 
d="M1251 646l-4 -36l-58 1c-18 0 -19 0 -102 -470c-25 -139 -50 -252 -76 -339h-286c-62 317 -77 391 -89 438c-5 -4 -41 -149 -106 -434h-303c-33 162 -47 239 -143 792c-10 6 -10 6 -84 6v196h441v-96l-4 -100l-80 -1c0 -85 1 -88 52 -299c5 4 28 97 128 498h259
c8 -10 30 -117 104 -481l7 7c11 53 29 143 53 272c-30 5 -38 6 -75 6v194h366v-154zM1202 681c-37 0 -61 2 -72 5v74h-25c-3 -10 -5 -20 -9 -75h-81c-7 0 -36 -2 -86 -6v-26h273v28zM1111 526h-124c-1 -7 -3 -17 -6 -30h121c-1 -2 -2 -5 -2 -9c0 -2 1 -8 3 -19
c2 13 5 32 8 58zM1083 369v-1l-48 1c-76 0 -76 0 -80 -3l1 -99c-1 -19 -4 -35 -7 -49h-28v-33h124c2 12 4 23 6 34h-66v123h92zM1021 59h-179v126h39l-8 34h-177v114l5 9h150l-38 184h-110l-5 5v112l5 8h85l-7 30c-26 4 -58 4 -223 4v47l-18 -81l33 2c22 0 42 -1 95 -7v-116
c-100 0 -153 -1 -160 -4l-8 -29l29 -1l1 -113c-20 -10 -20 -10 -56 -10c-5 -8 -6 -12 -6 -31h143v32l-27 -2c-2 0 -11 2 -27 5v111l4 7h252v-124h-152l32 -188h111l9 -7c-3 -53 -4 -72 -4 -78c0 -15 2 -28 4 -40h-96l8 -31h217l9 -6v-112l-5 -7h-201v-22c9 -5 25 -8 49 -8
c11 0 17 -8 18 -23h27c0 15 14 23 41 23h106c4 14 4 20 4 30l-11 5v94c0 2 2 9 7 23c27 0 35 3 35 35zM392 651v34h-119v73h-29v-72h-197v-28c75 -10 80 -12 80 -35l1 28h264zM353 349l-2 24c-64 0 -66 0 -79 4v90l-4 10c0 15 10 19 56 19c1 2 2 5 2 8c-6 16 -9 24 -9 26
h-173c0 -35 0 -35 64 -32c31 0 34 -5 34 -40c0 -7 -2 -35 -6 -85h-64v-31h178c2 1 3 4 3 7zM581 219h-145l-6 -34c8 0 43 2 53 3c31 0 46 -11 46 -33c0 -36 -3 -68 -8 -97h-244l-9 7v120h117v11c0 2 -2 10 -6 25h-179v-36h36v-119c-11 -5 -11 -6 -11 -12l4 -21
c0 -3 -2 -6 -4 -8h148v-122h-122c5 -35 9 -47 16 -53v12c0 5 2 9 6 12h232v30h-97v124h127c5 12 11 43 16 92c4 39 11 62 22 67c1 7 4 18 8 32z" />
    <glyph glyph-name="x" unicode="x" horiz-adv-x="1016" 
d="M983 -197h-489c-5 80 -6 102 -6 196c30 0 36 1 51 7l-75 100c-15 -11 -44 -45 -86 -100c7 -5 13 -6 62 -15v-189h-434c-4 45 -6 71 -6 77v120h92l229 276c-49 66 -96 133 -143 199c-69 86 -128 129 -178 129v193h475v-197l-18 3c-15 0 -27 -1 -34 -4
c21 -35 50 -72 86 -109l87 112h-79v199h450v-191c-85 6 -86 6 -322 -298c33 -49 37 -55 242 -311h90zM922 650v26h-198c-5 7 -5 23 -5 84h-34v-86h-124v-29l216 -3c38 0 57 -7 57 -21c0 -5 -1 -11 -4 -18c31 38 50 47 92 47zM761 519h-168l-24 -30h118v-55
c30 26 38 38 38 55c12 0 14 2 36 30zM816 20c-7 27 -18 29 -93 36c0 10 0 15 3 55c0 30 -11 43 -61 101h-86v120c20 0 35 7 53 32h-196v121l17 4c-9 29 -24 31 -138 31c4 64 4 64 5 86c0 19 -2 33 -5 39h114v111h-32v-78l-45 -5c-1 0 -146 3 -153 4l-8 5v74h-29
c-1 -17 -3 -42 -6 -76h-104l-8 -12v-24h244v-125h-98l21 -30h188v-109l-4 -15c-53 -4 -54 -4 -80 -4l17 -28l117 2c24 0 46 -1 94 -7v-111l-4 -5h-208l-33 -36l90 2l16 -26v-43c22 23 34 45 36 67h155c51 0 82 -2 94 -6v-116h-133l27 -34h233zM935 -132v30h-72v61l-30 40
v-90l-7 -12h-240c-4 6 -7 20 -9 41l-1 14h-31c0 -13 -1 -25 -3 -52c-7 -8 -11 -13 -11 -15c1 -3 1 -7 2 -17c84 0 137 -2 160 -7v-17h25c6 3 10 11 12 24h205zM355 54h-157l-25 -32h118c0 -8 3 -22 6 -44zM396 -132v29h-70c-3 5 -4 10 -8 58h-24c0 -11 -2 -29 -5 -52h-237
v53c-8 -50 -8 -53 -8 -86h103c14 0 16 -3 16 -22h28c0 11 1 16 4 20h201z" />
    <glyph glyph-name="y" unicode="y" horiz-adv-x="962" 
d="M933 609c-17 -1 -43 -3 -77 -7c-52 -88 -135 -218 -248 -391v-210h98c5 -77 6 -99 6 -196h-466c-8 88 -8 114 -8 189c13 3 37 4 73 4c15 0 23 7 23 22c0 110 -2 162 -10 206c-2 12 -210 302 -258 365l-24 6h-39v193l446 6v-195c-55 0 -63 -2 -75 -7
c16 -31 37 -61 111 -161h7c73 109 84 124 101 163c-25 5 -34 5 -79 5c-4 54 -5 77 -5 195l424 5v-192zM892 654v35h-245v67c-8 0 -17 -2 -31 -4c-1 -10 -1 -12 5 -51c0 -10 -8 -16 -25 -17h-36v-32h202v-109c7 7 15 19 26 34c0 39 2 65 7 77h97zM756 531h-147l-19 -31
c18 0 21 -1 28 -6v-118h-74c-25 0 -44 -9 -56 -26c-20 19 -35 29 -44 29c-38 -4 -47 -5 -76 -5v120l16 8l-20 28h-138c-3 65 -4 99 -5 107c0 5 2 10 7 15h175v34h-35v68h-28c-1 -15 -3 -38 -7 -68h-245c-8 11 -9 33 -9 66h-26v-59l-8 -11l1 -32h147v-121h-28
c17 -25 42 -38 75 -39c2 0 47 3 99 7v-123h-61c3 -7 9 -17 17 -30h176l9 -7v-114h-103v-35h184v35h-53v76c0 13 1 28 4 45l101 -2l22 3l18 23c-3 36 -5 63 -5 81c0 25 3 42 9 52c78 -6 89 -4 99 30zM667 -108c-1 3 -1 8 -2 21h-157v114c15 8 32 9 57 9v30h-185v-32h100v-123
h-194v-35h56v-28h28c0 20 1 23 5 29h247v-26h32c0 1 0 2 -2 19c0 3 2 7 7 11c5 3 8 7 8 11z" />
    <glyph glyph-name="z" unicode="z" horiz-adv-x="809" 
d="M736 -198h-736v195l417 588l-7 8h-177l-40 -156h-179l19 363h722v-154c0 -5 -1 -28 -4 -68c-59 -84 -198 -277 -417 -578l7 -5h185c7 14 16 45 26 92c10 44 19 71 27 81h180c0 -159 -4 -299 -23 -366zM713 668v31h-155v57h-32v-59h-248c-8 17 -9 23 -9 59h-30v-59h-172
v-35h27v-123h-37v-26h115v27h-47v115l7 8h243l5 -26h33v26h253v-121h-223l-25 -32l51 2c3 0 23 -2 62 -7v-114l-7 -9h-197l-21 -28c62 0 63 0 73 -5v-115c-30 0 -35 0 -108 6c-19 0 -44 -15 -74 -44c11 1 11 1 44 -5v-118h-134l-23 -30c9 -36 14 -57 15 -62
c0 -23 -2 -44 -6 -64h-47v-30h190c7 -8 10 -16 10 -24c0 -4 -1 -9 -3 -13h32l5 35h253v-35h27v23c0 5 3 11 8 16h132c0 2 6 116 10 184h-114l-8 -30h84v-100c0 -3 -2 -8 -6 -22h-251v31h-31c0 -19 -1 -26 -8 -35h-240l-5 4v114l5 8h175l21 30h-52l-7 5v113l7 6h134l34 37
h-34v118c125 0 141 1 141 50v79c0 29 11 29 46 29c73 0 101 45 101 156z" />
  </font>
</defs>
</svg>
